<svg width="300" height="36" viewBox="0 0 300 36" fill="none" xmlns="http://www.w3.org/2000/svg">
<circle cx="18" cy="18" r="18" fill="white"/>
<circle cx="68" cy="18" r="18" fill="white"/>
<circle cx="118" cy="18" r="18" fill="white"/>
<circle cx="168" cy="18" r="18" fill="white"/>
<circle cx="218" cy="18" r="18" fill="white"/>
<circle cx="268" cy="18" r="18" fill="white"/>
<g clip-path="url(#clip0_493_180)">
<path d="M18 11.3333L15.3334 14L16.6667 15.3333L19.3334 12.6666C20.4334 11.5666 22.2334 11.5666 23.3334 12.6666C24.4334 13.7666 24.4334 15.5666 23.3334 16.6666L20.6667 19.3333L22 20.6666L24.6667 18C26.5067 16.16 26.5067 13.1733 24.6667 11.3333C22.8267 9.49328 19.84 9.49328 18 11.3333ZM19.3334 20.6666L16.6667 23.3333C15.5667 24.4333 13.7667 24.4333 12.6667 23.3333C11.5667 22.2333 11.5667 20.4333 12.6667 19.3333L15.3334 16.6666L14 15.3333L11.3333 18C9.49334 19.84 9.49334 22.8267 11.3333 24.6667C13.1733 26.5067 16.16 26.5067 18 24.6667L20.6667 22L19.3334 20.6666ZM14.6667 20L20 14.6666L21.3334 16L16 21.3333L14.6667 20Z" fill="#8D8D8D"/>
</g>
<path d="M64.2896 26.1256C71.8368 26.1256 75.9648 19.8728 75.9648 14.4504C75.9648 14.2728 75.9648 14.096 75.9528 13.92C76.7559 13.3391 77.4491 12.6199 78 11.796C77.2512 12.128 76.4567 12.3456 75.6432 12.4416C76.4998 11.9288 77.141 11.1222 77.4472 10.172C76.6417 10.65 75.7605 10.9868 74.8416 11.168C74.2229 10.5101 73.4047 10.0745 72.5135 9.92852C71.6223 9.78256 70.7078 9.93438 69.9116 10.3605C69.1154 10.7866 68.4819 11.4633 68.109 12.2857C67.7361 13.1082 67.6446 14.0307 67.8488 14.9104C66.2174 14.8285 64.6215 14.4045 63.1645 13.666C61.7076 12.9274 60.4223 11.8907 59.392 10.6232C58.8673 11.5265 58.7066 12.5958 58.9426 13.6135C59.1786 14.6312 59.7936 15.5206 60.6624 16.1008C60.0094 16.0816 59.3705 15.9054 58.8 15.5872V15.6392C58.8003 16.5865 59.1282 17.5046 59.7282 18.2378C60.3282 18.9709 61.1634 19.474 62.092 19.6616C61.4879 19.8263 60.8541 19.8504 60.2392 19.732C60.5015 20.5472 61.012 21.2602 61.6994 21.7711C62.3867 22.282 63.2165 22.5654 64.0728 22.5816C63.222 23.2503 62.2478 23.7447 61.2057 24.0366C60.1637 24.3284 59.0743 24.4119 58 24.2824C59.8765 25.4865 62.0599 26.1253 64.2896 26.1224" fill="#888888"/>
<path d="M118 9.80078C120.672 9.80078 120.988 9.8125 122.039 9.85937C123.016 9.90234 123.543 10.0664 123.895 10.2031C124.359 10.3828 124.695 10.6016 125.043 10.9492C125.395 11.3008 125.609 11.6328 125.789 12.0977C125.926 12.4492 126.09 12.9805 126.133 13.9531C126.18 15.0078 126.191 15.3242 126.191 17.9922C126.191 20.6641 126.18 20.9805 126.133 22.0313C126.09 23.0078 125.926 23.5352 125.789 23.8867C125.609 24.3516 125.391 24.6875 125.043 25.0352C124.691 25.3867 124.359 25.6016 123.895 25.7813C123.543 25.918 123.012 26.082 122.039 26.125C120.984 26.1719 120.668 26.1836 118 26.1836C115.328 26.1836 115.012 26.1719 113.961 26.125C112.984 26.082 112.457 25.918 112.105 25.7813C111.641 25.6016 111.305 25.3828 110.957 25.0352C110.605 24.6836 110.391 24.3516 110.211 23.8867C110.074 23.5352 109.91 23.0039 109.867 22.0313C109.82 20.9766 109.809 20.6602 109.809 17.9922C109.809 15.3203 109.82 15.0039 109.867 13.9531C109.91 12.9766 110.074 12.4492 110.211 12.0977C110.391 11.6328 110.609 11.2969 110.957 10.9492C111.309 10.5977 111.641 10.3828 112.105 10.2031C112.457 10.0664 112.988 9.90234 113.961 9.85937C115.012 9.8125 115.328 9.80078 118 9.80078ZM118 8C115.285 8 114.945 8.01172 113.879 8.05859C112.816 8.10547 112.086 8.27734 111.453 8.52344C110.793 8.78125 110.234 9.12109 109.68 9.67969C109.121 10.2344 108.781 10.793 108.523 11.4492C108.277 12.0859 108.105 12.8125 108.059 13.875C108.012 14.9453 108 15.2852 108 18C108 20.7148 108.012 21.0547 108.059 22.1211C108.105 23.1836 108.277 23.9141 108.523 24.5469C108.781 25.207 109.121 25.7656 109.68 26.3203C110.234 26.875 110.793 27.2188 111.449 27.4727C112.086 27.7188 112.813 27.8906 113.875 27.9375C114.941 27.9844 115.281 27.9961 117.996 27.9961C120.711 27.9961 121.051 27.9844 122.117 27.9375C123.18 27.8906 123.91 27.7188 124.543 27.4727C125.199 27.2188 125.758 26.875 126.313 26.3203C126.867 25.7656 127.211 25.207 127.465 24.5508C127.711 23.9141 127.883 23.1875 127.93 22.125C127.977 21.0586 127.988 20.7188 127.988 18.0039C127.988 15.2891 127.977 14.9492 127.93 13.8828C127.883 12.8203 127.711 12.0898 127.465 11.457C127.219 10.793 126.879 10.2344 126.32 9.67969C125.766 9.125 125.207 8.78125 124.551 8.52734C123.914 8.28125 123.188 8.10938 122.125 8.0625C121.055 8.01172 120.715 8 118 8Z" fill="#888888"/>
<path d="M118 12.8633C115.164 12.8633 112.863 15.1641 112.863 18C112.863 20.8359 115.164 23.1367 118 23.1367C120.836 23.1367 123.137 20.8359 123.137 18C123.137 15.1641 120.836 12.8633 118 12.8633ZM118 21.332C116.16 21.332 114.668 19.8398 114.668 18C114.668 16.1602 116.16 14.668 118 14.668C119.84 14.668 121.332 16.1602 121.332 18C121.332 19.8398 119.84 21.332 118 21.332Z" fill="#888888"/>
<path d="M124.539 12.6601C124.539 13.3242 124 13.8593 123.34 13.8593C122.676 13.8593 122.141 13.3203 122.141 12.6601C122.141 11.996 122.68 11.4609 123.34 11.4609C124 11.4609 124.539 11.9999 124.539 12.6601Z" fill="#888888"/>
<g clip-path="url(#clip1_493_180)">
<path d="M177.602 13.1545C177.489 12.729 177.266 12.3407 176.955 12.0284C176.645 11.7161 176.258 11.4908 175.833 11.375C174.27 10.9545 168.02 10.9545 168.02 10.9545C168.02 10.9545 161.77 10.9545 160.206 11.375C159.781 11.4908 159.394 11.7161 159.084 12.0284C158.774 12.3407 158.551 12.729 158.438 13.1545C158.02 14.725 158.02 18 158.02 18C158.02 18 158.02 21.275 158.438 22.8454C158.551 23.2709 158.774 23.6593 159.084 23.9716C159.394 24.2839 159.781 24.5092 160.206 24.625C161.77 25.0454 168.02 25.0454 168.02 25.0454C168.02 25.0454 174.27 25.0454 175.833 24.625C176.258 24.5092 176.645 24.2839 176.955 23.9716C177.266 23.6593 177.489 23.2709 177.602 22.8454C178.02 21.275 178.02 18 178.02 18C178.02 18 178.02 14.725 177.602 13.1545Z" fill="#888888"/>
<path d="M165.974 20.9739V15.0262L171.202 18L165.974 20.9739Z" fill="#FEFEFE"/>
</g>
<g clip-path="url(#clip2_493_180)">
<path d="M218 28C223.523 28 228 23.5228 228 18C228 12.4772 223.523 8 218 8C212.477 8 208 12.4772 208 18C208 23.5228 212.477 28 218 28Z" fill="white"/>
<path d="M218 8C212.477 8 208 12.4774 208 18C208 22.2387 210.634 25.8601 214.354 27.3169C214.263 26.5267 214.189 25.3086 214.387 24.4444C214.568 23.6626 215.556 19.4733 215.556 19.4733C215.556 19.4733 215.259 18.8724 215.259 17.9918C215.259 16.6008 216.066 15.5638 217.07 15.5638C217.926 15.5638 218.337 16.2058 218.337 16.9712C218.337 17.8272 217.794 19.1111 217.506 20.3045C217.267 21.3004 218.008 22.1152 218.988 22.1152C220.765 22.1152 222.132 20.2387 222.132 17.5391C222.132 15.144 220.412 13.4733 217.951 13.4733C215.103 13.4733 213.432 15.6049 213.432 17.8107C213.432 18.6667 213.761 19.5885 214.173 20.0905C214.255 20.1893 214.263 20.2798 214.239 20.3786C214.165 20.6914 213.992 21.3745 213.959 21.5144C213.918 21.6955 213.811 21.7366 213.621 21.6461C212.37 21.0617 211.588 19.2428 211.588 17.7695C211.588 14.6173 213.877 11.7202 218.198 11.7202C221.663 11.7202 224.362 14.1893 224.362 17.4979C224.362 20.9465 222.189 23.7202 219.177 23.7202C218.165 23.7202 217.21 23.1934 216.889 22.5679C216.889 22.5679 216.387 24.4774 216.263 24.9465C216.041 25.8189 215.432 26.9053 215.021 27.572C215.959 27.8601 216.947 28.0165 217.984 28.0165C223.506 28.0165 227.984 23.5391 227.984 18.0165C228 12.4774 223.523 8 218 8Z" fill="#888888"/>
</g>
<g clip-path="url(#clip3_493_180)">
<path fill-rule="evenodd" clip-rule="evenodd" d="M268 8.41669C265.626 8.41792 263.33 9.25874 261.522 10.7888C259.715 12.3188 258.513 14.4384 258.133 16.7684C257.753 19.0983 258.218 21.4869 259.447 23.5068C260.675 25.5268 262.586 27.0465 264.837 27.7942C265.334 27.8864 265.521 27.5785 265.521 27.3167C265.521 27.0549 265.511 26.2959 265.508 25.466C262.726 26.067 262.138 24.2921 262.138 24.2921C261.685 23.1396 261.029 22.8366 261.029 22.8366C260.121 22.2208 261.097 22.2323 261.097 22.2323C262.102 22.3031 262.63 23.2581 262.63 23.2581C263.521 24.7778 264.97 24.3382 265.54 24.0813C265.629 23.4376 265.889 22.9996 266.175 22.751C263.953 22.5007 261.618 21.6478 261.618 17.8379C261.605 16.8498 261.973 15.8942 262.648 15.1689C262.546 14.9187 262.203 13.9077 262.746 12.5345C262.746 12.5345 263.586 12.2678 265.497 13.5537C267.136 13.108 268.865 13.108 270.504 13.5537C272.413 12.2678 273.251 12.5345 273.251 12.5345C273.796 13.9044 273.453 14.9154 273.35 15.1689C274.028 15.8943 274.397 16.8516 274.382 17.8412C274.382 21.6594 272.042 22.5007 269.817 22.746C270.174 23.0556 270.494 23.6598 270.494 24.5885C270.494 25.9188 270.482 26.989 270.482 27.3167C270.482 27.5818 270.663 27.8913 271.17 27.7942C273.422 27.0464 275.333 25.5264 276.561 23.5061C277.789 21.4858 278.255 19.0969 277.874 16.7667C277.493 14.4365 276.291 12.317 274.483 10.7872C272.674 9.2574 270.378 8.41714 268.004 8.41669H268Z" fill="#888888"/>
<path d="M261.787 22.6933C261.766 22.7427 261.686 22.7576 261.621 22.723C261.557 22.6884 261.509 22.6242 261.532 22.5731C261.555 22.5221 261.633 22.5089 261.698 22.5435C261.762 22.5781 261.812 22.6439 261.787 22.6933Z" fill="#888888"/>
<path d="M262.193 23.1428C262.158 23.16 262.119 23.1648 262.082 23.1564C262.044 23.148 262.011 23.1269 261.987 23.0967C261.923 23.0276 261.91 22.9321 261.959 22.8893C262.009 22.8465 262.098 22.8662 262.163 22.9354C262.228 23.0045 262.242 23.1 262.193 23.1428Z" fill="#888888"/>
<path d="M262.587 23.7141C262.526 23.7569 262.421 23.7141 262.363 23.6285C262.347 23.6132 262.335 23.5947 262.326 23.5744C262.317 23.554 262.313 23.5321 262.313 23.51C262.313 23.4878 262.317 23.4659 262.326 23.4456C262.335 23.4252 262.347 23.4068 262.363 23.3914C262.425 23.3503 262.529 23.3914 262.587 23.4754C262.645 23.5594 262.646 23.6713 262.587 23.7141V23.7141Z" fill="#888888"/>
<path d="M263.122 24.2674C263.067 24.3283 262.956 24.3118 262.865 24.2295C262.774 24.1472 262.752 24.0352 262.807 23.9759C262.862 23.9167 262.973 23.9331 263.067 24.0138C263.161 24.0945 263.18 24.2081 263.122 24.2674V24.2674Z" fill="#888888"/>
<path d="M263.872 24.5901C263.847 24.6675 263.734 24.702 263.622 24.6691C263.509 24.6362 263.435 24.544 263.456 24.4649C263.478 24.3859 263.592 24.3497 263.706 24.3859C263.821 24.4221 263.893 24.5094 263.872 24.5901Z" fill="#888888"/>
<path d="M264.69 24.6461C264.69 24.7268 264.597 24.7959 264.478 24.7976C264.359 24.7992 264.261 24.7333 264.261 24.6527C264.261 24.572 264.354 24.5028 264.473 24.5012C264.592 24.4995 264.69 24.5638 264.69 24.6461Z" fill="#888888"/>
<path d="M265.452 24.5193C265.466 24.6 265.384 24.684 265.264 24.7037C265.145 24.7235 265.041 24.6757 265.026 24.5967C265.011 24.5177 265.097 24.432 265.213 24.4106C265.329 24.3892 265.437 24.4386 265.452 24.5193Z" fill="#888888"/>
</g>
<defs>
<clipPath id="clip0_493_180">
<rect width="20" height="20" fill="white" transform="translate(8 8)"/>
</clipPath>
<clipPath id="clip1_493_180">
<rect width="20" height="20" fill="white" transform="translate(158 8)"/>
</clipPath>
<clipPath id="clip2_493_180">
<rect width="20" height="20" fill="white" transform="translate(208 8)"/>
</clipPath>
<clipPath id="clip3_493_180">
<rect width="20" height="20" fill="white" transform="translate(258 8)"/>
</clipPath>
</defs>
</svg>
