<svg width="382" height="304" viewBox="0 0 382 304" fill="none" xmlns="http://www.w3.org/2000/svg">
<path d="M246.4 16.9599C244.12 15.6799 241.52 14.9599 239.28 13.6599C238.704 13.2577 238.198 12.7647 237.78 12.1999C235.218 9.17206 232.312 6.45365 229.12 4.09985C229.912 5.51205 230.83 6.85065 231.86 8.09985C232.48 8.87985 231.1 11.2799 230.18 10.5599C229.26 9.83986 228.54 9.33985 227.68 8.75985C226.714 7.97565 225.616 7.36645 224.44 6.95985C225.512 8.87245 226.778 10.6687 228.22 12.3199C228.86 13.0799 227.46 15.4399 226.52 14.7599C224.756 13.4773 222.912 12.3083 221 11.2599C222.94 13.8677 225.138 16.2731 227.56 18.4399C228.24 19.0799 227.12 20.8599 226.36 20.9399C224.52 21.1199 222.64 21.3199 220.8 21.6599C227.48 24.9799 234.24 22.9199 237.02 24.1199C244.466 27.5137 251.056 32.5375 256.3 38.8199C262.82 46.6799 264.86 56.8199 259.26 65.7199C257.78 68.0617 256.058 70.2405 254.12 72.2199C255.754 76.1483 256.882 80.2677 257.48 84.4799C264.118 79.3055 268.782 72.0145 270.7 63.8199C274.04 47.8399 266.2 27.9999 246.4 16.9599Z" fill="#FF3E74"/>
<path d="M255.56 87.3399C254.46 77.4809 250.326 68.2073 243.726 60.8013C237.126 53.3951 228.388 48.2229 218.72 45.9999C209.294 43.8055 199.418 44.6161 190.475 48.3183C181.533 52.0205 173.973 58.4283 168.857 66.6435C163.74 74.8587 161.323 84.4693 161.944 94.1277C162.565 103.786 166.193 113.008 172.32 120.5C178.384 127.994 186.57 133.483 195.804 136.248C205.04 139.014 214.894 138.928 224.08 136C234.084 132.685 242.656 126.055 248.38 117.207C254.104 108.359 256.636 97.8229 255.56 87.3399ZM201.68 77.1999C200.02 94.3599 181 95.9999 175.88 83.6999C175.56 82.9399 176.32 81.9399 176.9 81.5599C184.767 76.2957 193.384 72.2501 202.46 69.5599C210.842 66.9993 219.522 65.5469 228.28 65.2399C228.72 65.2399 228.86 65.5599 228.84 65.9799C228.82 66.3999 228.84 66.9199 228.96 67.2399H241.36C242.66 67.2399 241.5 70.0199 240.32 70.0199H229C227.66 83.3399 214.6 90.4599 201.68 77.1999Z" fill="#FF3E74"/>
<path d="M219 140C230.724 137.254 241.08 130.412 248.206 120.705C255.33 110.999 258.754 99.0673 257.86 87.0599C264.752 81.5833 269.804 74.1301 272.34 65.6999C277.06 48.4799 269.38 26.5599 248.34 14.5999C245.94 13.2399 241.36 11.8199 240.08 10.3599C239.066 9.2133 238.026 8.0933 236.96 6.9999C234.96 4.9999 232.42 1.9399 229.58 0.999901C227.4 0.319901 226 2.2599 226.38 4.2599C225.832 3.8859 225.184 3.6857 224.52 3.6857C223.856 3.6857 223.208 3.8859 222.66 4.2599C222.154 4.7795 221.822 5.4453 221.714 6.1631C221.606 6.8809 221.728 7.6145 222.06 8.2599C220.18 7.4799 218.48 7.4199 217.78 9.2999C216.96 11.5599 219.44 14.0399 220.76 15.5599C221.68 16.6199 222.76 17.5599 223.66 18.6799C222.94 18.6799 222.2 18.8799 221.48 19.0199C219.92 19.2799 217.76 19.5399 217.22 21.3199C216.68 23.0999 219.22 24.2999 220.7 24.8799C223.594 25.9675 226.668 26.4967 229.76 26.4399C232.022 26.1387 234.324 26.3997 236.46 27.1999C239.588 28.8331 242.59 30.6983 245.44 32.7799C260.48 43.7599 266.6 57.3799 253.44 70.5599C250.714 64.5997 246.81 59.2523 241.964 54.8393C237.118 50.4263 231.428 47.0385 225.24 44.8799C215.622 41.6819 205.258 41.5007 195.534 44.3605C185.811 47.2203 177.195 52.9843 170.84 60.8799C164.534 68.7849 160.761 78.4093 160.015 88.4939C159.27 98.5785 161.585 108.653 166.66 117.4C171.949 126.143 179.834 133.019 189.216 137.07C198.598 141.121 209.008 142.145 219 140ZM168.74 66.8599C173.272 59.6879 179.658 53.8739 187.222 50.0323C194.786 46.1909 203.248 44.4647 211.712 45.0363C220.176 45.6081 228.33 48.4563 235.308 53.2801C242.288 58.1039 247.834 64.7237 251.36 72.4399C254.158 78.3521 255.666 84.7917 255.786 91.3313C255.904 97.8707 254.632 104.361 252.052 110.371C249.472 116.382 245.644 121.775 240.822 126.194C236 130.612 230.292 133.955 224.08 136C214.902 138.936 205.052 139.036 195.818 136.285C186.584 133.533 178.394 128.06 172.32 120.58C166.3 113.067 162.729 103.888 162.089 94.2825C161.449 84.6765 163.77 75.1053 168.74 66.8599ZM259.32 65.7199C264.92 56.7999 262.88 46.6799 256.36 38.8199C251.092 32.5279 244.476 27.5035 237 24.1199C234.3 22.9599 227.36 24.9199 220.78 21.6599C222.62 21.3199 224.5 21.1199 226.34 20.9399C227.1 20.9399 228.22 19.0799 227.54 18.4399C225.13 16.2669 222.94 13.8621 221 11.2599C222.888 12.3161 224.712 13.4849 226.46 14.7599C227.4 15.4399 228.8 13.0799 228.16 12.3199C226.712 10.6739 225.444 8.8769 224.38 6.9599C225.554 7.3719 226.65 7.9807 227.62 8.7599C228.48 9.3399 229.3 9.9199 230.12 10.5599C230.94 11.1999 232.42 8.8799 231.8 8.0999C230.77 6.8507 229.852 5.5121 229.06 4.0999C232.256 6.4485 235.164 9.1675 237.72 12.1999C238.138 12.7647 238.644 13.2577 239.22 13.6599C241.46 14.9399 244.06 15.6599 246.34 16.9599C266.04 27.9399 273.98 47.7799 270.7 63.8199C268.782 72.0145 264.118 79.3055 257.48 84.4799C256.882 80.2677 255.754 76.1483 254.12 72.2199C256.078 70.2435 257.822 68.0645 259.32 65.7199Z" fill="#0D128A"/>
<path d="M193.82 90.22C196.1 88.8642 198.01 86.9664 199.382 84.6952C200.754 82.424 201.542 79.8494 201.68 77.2C211.02 86.8 220.38 85.8 225.42 79.2C227.448 76.527 228.688 73.3404 229 70H240.42C241.6 70 242.76 67.22 241.46 67.22H229C229 66.82 229 66.4 228.88 66C228.76 65.6 228.88 65.22 228.32 65.22C214.822 65.7366 201.556 68.9034 189.28 74.54C185.009 76.5542 180.903 78.9014 177 81.56C176.42 81.94 175.66 82.94 175.98 83.7C176.651 85.3594 177.663 86.8594 178.95 88.1034C180.237 89.3474 181.771 90.3076 183.452 90.922C185.133 91.5364 186.925 91.7914 188.71 91.6706C190.496 91.5496 192.236 91.0554 193.82 90.22ZM226.36 73C226.204 73.6816 225.998 74.3502 225.74 75L215.36 69.24L218.66 68.72L226.36 73ZM224.36 77.62C223.602 78.6534 222.652 79.5296 221.56 80.2L205.56 71.34C207.3 70.9 209.04 70.48 210.8 70.12L224.36 77.62ZM199.2 80.14C199.042 80.8184 198.842 81.4864 198.6 82.14L189.4 77.08L191.76 76.04L199.2 80.14ZM197.2 84.78C196.456 85.8236 195.51 86.7076 194.42 87.38L182.42 80.72C183.66 80 184.92 79.3334 186.2 78.72L197.2 84.78Z" fill="#0D128A"/>
<path d="M176.4 72.84C177.08 72.98 177.68 72.02 177.88 71.54C178.88 69.12 180.86 66.36 183.72 66.04C184.84 65.92 185.72 63.16 184.22 63.34C180.22 63.76 177.36 68.02 175.96 71.34C175.76 71.88 175.74 72.68 176.4 72.84Z" fill="#0D128A"/>
<path d="M220.22 56.1599C217.34 54.1599 213.28 52.6199 209.86 54.2599C208.82 54.7599 208.3 57.5399 209.86 56.7599C212.44 55.5199 216.28 57.1399 218.64 58.7599C219.7 59.4799 221.24 56.8999 220.22 56.1599Z" fill="#0D128A"/>
<path d="M215.38 87.2998C211.68 91.0798 205.22 95.2998 199.82 92.0598C198.76 91.4398 197.24 94.0598 198.32 94.6798C204.32 98.2198 211.78 93.6798 215.98 89.3998C216.86 88.4998 216.76 85.8798 215.38 87.2998Z" fill="#0D128A"/>
<path d="M183.62 108.16C181.838 108.514 180.235 109.479 179.089 110.888C177.942 112.298 177.324 114.063 177.34 115.88C177.318 116.77 177.483 117.654 177.823 118.476C178.163 119.299 178.672 120.041 179.316 120.655C179.96 121.269 180.726 121.741 181.563 122.042C182.401 122.342 183.292 122.464 184.18 122.4C185.946 122.082 187.547 121.164 188.713 119.801C189.88 118.438 190.539 116.713 190.58 114.92C190.636 114 190.492 113.08 190.159 112.221C189.826 111.362 189.311 110.585 188.651 109.943C187.99 109.301 187.198 108.81 186.33 108.502C185.462 108.194 184.537 108.078 183.62 108.16ZM179.62 114.66C179.648 114.082 179.801 113.516 180.069 113.003C180.337 112.49 180.713 112.041 181.171 111.687C181.63 111.334 182.159 111.084 182.724 110.955C183.288 110.825 183.874 110.82 184.44 110.94C185.566 111.192 186.573 111.817 187.299 112.714C188.025 113.611 188.427 114.726 188.44 115.88C188.12 121.84 179.4 120 179.52 114.66H179.62Z" fill="#0D128A"/>
<path d="M173.56 99.44C172.342 99.7068 171.253 100.386 170.476 101.362C169.7 102.339 169.285 103.553 169.3 104.8C169.275 105.367 169.372 105.932 169.582 106.459C169.793 106.985 170.113 107.461 170.522 107.854C170.93 108.248 171.418 108.55 171.952 108.74C172.486 108.931 173.055 109.006 173.62 108.96C174.819 108.73 175.905 108.101 176.7 107.175C177.496 106.249 177.954 105.08 178 103.86C178.067 103.261 177.999 102.655 177.799 102.087C177.599 101.519 177.274 101.003 176.847 100.578C176.42 100.153 175.903 99.8301 175.334 99.6329C174.765 99.4359 174.158 99.37 173.56 99.44ZM171.56 103.6C171.56 101.42 175.76 101.6 175.92 104.8C175.7 107.52 171.4 106 171.48 103.6H171.56Z" fill="#0D128A"/>
<path d="M280.78 107.76C264.284 106.964 247.956 111.36 234.09 120.329C220.222 129.298 209.518 142.389 203.48 157.76C206.038 156.44 208.784 155.522 211.62 155.04C218.534 142.559 228.554 132.073 240.708 124.6C252.864 117.126 266.742 112.917 281 112.38L281.32 107.66C281.15 107.735 280.966 107.77 280.78 107.76Z" fill="#FF3E74"/>
<path d="M223.18 157.76C225.394 159.412 227.296 161.444 228.8 163.76C241.336 147.594 259.396 136.62 279.52 132.94L280.06 124.94H279.9C268.666 126.105 257.806 129.631 248.032 135.288C238.258 140.944 229.788 148.602 223.18 157.76Z" fill="white"/>
<path d="M280.72 115C280.584 115.076 280.434 115.124 280.28 115.14C266.738 115.513 253.522 119.365 241.9 126.325C230.278 133.285 220.642 143.119 213.92 154.88C216.59 154.796 219.234 155.446 221.56 156.76C228.328 147.164 237.062 139.117 247.178 133.155C257.296 127.193 268.566 123.452 280.24 122.18L280.72 115Z" fill="#6CECC4"/>
<path d="M313.72 216.92L307.72 219.9C307.72 236.766 307.72 253.634 307.72 270.5C307.71 270.876 307.606 271.244 307.418 271.568C307.23 271.894 306.962 272.166 306.64 272.36C300.488 275.71 294.646 279.6 289.18 283.98C288.4 284.68 286.4 285.98 287.54 286.82C288.69 287.298 289.95 287.45 291.18 287.26C296.83 286.618 302.39 285.35 307.76 283.48C310.4 282.64 316.38 281.7 316.56 278.4C316.7 278.18 316.84 281.6 313.72 216.92Z" fill="white"/>
<path d="M347.4 277.72C338.46 271.96 338.28 272.7 338.28 271.72C338.28 271.72 338.28 235.04 338.28 220.76L332.04 221.38C329.42 275.76 329.4 270.44 329.36 276.86C329.36 279.46 330.86 280.68 333.16 281.5C338.7 283.5 351.6 287.8 357.48 287.22L358.66 286.96V286.82C355.426 283.196 351.622 280.122 347.4 277.72Z" fill="white"/>
<path d="M365 143.6C356.472 142.601 347.828 143.643 339.78 146.64C339.42 146.76 339.2 146.64 339.1 146.42C338.46 145.72 340.18 142.86 339.84 131.64C339.62 124.72 338.54 117 334.14 111.38C332.138 108.972 329.51 107.163 326.546 106.154C323.582 105.144 320.396 104.974 317.34 105.66C315.662 106.145 314.1 106.967 312.75 108.074C311.398 109.181 310.286 110.55 309.48 112.1C304.16 121.22 304.96 133.38 306.06 143.42C306.06 144.08 305.32 145.62 304.46 145.42C299.996 144.315 295.434 143.646 290.84 143.42C284.72 143.1 277.04 143.26 272.08 147.42C267.12 151.58 269.44 157.42 273.48 161.42C280.28 168.26 290.06 172.86 299.02 176.22C299.8 176.52 299.12 177.98 298.82 178.22C296.606 180.718 294.598 183.394 292.82 186.22C287.5 194.7 281.4 209.48 292.16 216.64C296.42 219.48 301.52 218.32 305.56 215.72C311.56 211.72 315.72 204.96 318.04 198.08C318.22 197.56 319.34 196.08 319.92 197.02C323.058 201.512 326.622 205.69 330.56 209.5C333.806 212.808 337.646 215.474 341.88 217.36C346.74 219.36 353.52 219.36 355.56 213.5C357.6 207.64 355.76 200.78 353.9 195.28C351.828 188.864 348.662 182.856 344.54 177.52C343.96 176.78 344.9 175.1 345.74 175.02C348.992 174.594 352.208 173.926 355.36 173.02C361.03 171.656 366.408 169.284 371.24 166.02C382.86 157.8 381.46 146 365 143.6ZM316.04 156C312.38 156.5 311.24 151.28 311.22 148.62C311.2 145.96 312.4 140.8 315.84 140.04C319.68 139.18 320.8 144.78 320.88 147.4C320.78 150.26 319.72 155.42 316.04 156ZM327.62 156.52C323.96 157.02 322.8 151.78 322.8 149.12C322.8 146.46 323.98 141.3 327.42 140.54C331.26 139.68 332.38 145.28 332.46 147.9C332.36 150.78 331.28 156 327.62 156.44V156.52Z" fill="#6CECC4"/>
<path d="M253.84 258.24C253.308 255.336 253.014 252.392 252.96 249.44C250.812 248.882 248.722 248.118 246.72 247.16C242.72 252.54 242.72 252.36 242.22 253.02C242.824 258.758 244.01 264.422 245.76 269.92C246.16 271.2 247.3 276.04 248.98 277.14C249.088 275.368 248.994 273.59 248.7 271.84C248.58 270.96 250.28 268.9 250.84 270.34C251.4 271.78 252.22 274.84 253.46 275.84C253.66 276.34 253.74 276.34 253.72 275.84C253.67 274.208 253.49 272.584 253.18 270.98C253.02 270 254.72 267.64 255.18 269.18C255.844 271.038 256.934 272.716 258.36 274.08C258.62 270.5 255.68 268.28 253.84 258.24Z" fill="white"/>
<path d="M196.54 262.84C196.54 268.84 196.32 274.66 196.22 280.58L206.98 281.04C206.36 274.68 205.72 268.3 204.98 261.94L196.54 262.84Z" fill="white"/>
<path d="M220.62 260.1C219.9 267.1 219.2 274.1 218.62 281.08L229.46 279.98C229.34 273.16 229.2 266.34 229.08 259.5L220.62 260.1Z" fill="white"/>
<path d="M172.86 252.68C171.408 253.826 169.701 254.606 167.884 254.954C166.067 255.302 164.193 255.208 162.42 254.68C158.8 253.58 155.96 250.86 152.68 249.16C152.02 248.82 150.8 248.08 150.9 249.16C151 250.24 153.44 251.7 154.22 252.66C155 253.62 153.58 255.52 152.52 255.1C150.54 254.336 148.457 253.872 146.34 253.72C148.191 255.478 150.383 256.84 152.78 257.72C153.84 258.14 152.5 260.6 151.5 260.42C149.345 259.882 147.14 259.566 144.92 259.48C145.48 259.88 148.22 261.38 148.92 261.7C153.552 264.444 158.711 266.182 164.06 266.8C168.245 267.214 172.439 266.112 175.879 263.692C179.319 261.274 181.775 257.698 182.8 253.62C179.468 254.328 176 254 172.86 252.68Z" fill="white"/>
<path d="M266.86 209.18C265.6 209.36 266.06 207.6 266.56 207.04C269.7 203.812 271.702 199.648 272.26 195.18C272.274 193.37 271.75 191.598 270.758 190.084C269.764 188.572 268.346 187.388 266.68 186.68C264 185.3 258.68 183.2 256.68 186.5C256.28 187.12 254.8 188.08 254.8 186.66C254.826 183.562 253.942 180.522 252.26 177.92C246.26 169.04 232.96 176.38 231.98 176.5C231 176.62 231.72 174.98 228.42 168.72C222.24 157.04 213.24 154.88 202.3 160.92C195.62 164.72 190.48 171.38 193.02 178.6C193.26 179.3 192.1 181.58 191.22 180.82C184.62 175.02 174.28 174.82 169.54 182.44C165.84 188.44 171.4 195.72 176.12 199.34C177.1 200.1 175.74 202.48 174.6 201.96C168.82 199.26 160.92 199.5 157.9 205.96C155.1 211.96 155.42 221.66 163.64 222.6C165.06 222.78 163.64 225.32 162.6 225.36C160.76 225.36 158.6 228 158.02 229.56C157.585 230.588 157.361 231.694 157.361 232.81C157.361 233.926 157.585 235.032 158.02 236.06C160.4 240.76 166.58 236.88 169.74 235.14C171.26 234.32 170.84 236.86 170.06 237.44C168.24 238.76 168.48 243.44 169.24 245.34C171.88 251.9 184.34 253.34 189.08 247.88C190.46 246.3 190.66 248.46 192 250.06C193.366 251.76 194.916 253.302 196.62 254.66C199.628 256.868 203.27 258.04 207 258C211.7 258 213.22 255.86 216.58 252.66C216.714 252.52 216.886 252.422 217.074 252.38C217.262 252.336 217.46 252.352 217.64 252.42C222.816 255.246 228.834 256.12 234.6 254.88C239.98 253.54 240.96 251.82 242 250.32C242.48 249.64 242 250.18 246.28 244.66C246.56 244.3 247.12 243.9 247.58 244.14C249.988 245.32 252.524 246.212 255.14 246.8C264.96 248.9 268.1 243.68 265.96 234.18C265.87 233.71 265.952 233.224 266.192 232.81C266.43 232.394 266.808 232.08 267.26 231.92C273.06 230.56 278.14 226.04 278.04 219.78C277.94 213.52 273.36 208.26 266.86 209.18ZM207.06 217.58C201.64 218.46 199.96 210.34 199.96 206.54C199.96 202.38 201.56 195.12 206.62 194.3C212.08 193.38 213.62 201.54 213.72 205.32C213.62 209.48 212.18 216.74 207 217.58H207.06ZM222.66 218.58C217.24 219.46 215.58 211.34 215.56 207.54C215.56 203.38 217.16 196.14 222.22 195.3C227.68 194.4 229.24 202.56 229.32 206.34C229.22 210.5 227.78 217.74 222.66 218.58Z" fill="white"/>
<path d="M281.36 99.1798C265.32 98.3384 249.358 101.926 235.218 109.548C221.08 117.171 209.312 128.536 201.2 142.4C196.296 150.477 192.958 159.406 191.36 168.72C191.26 169.54 191.14 170.34 191.04 171.14C192.73 166.118 196.212 161.896 200.82 159.28C206.748 142.847 217.752 128.727 232.238 118.965C246.726 109.202 263.944 104.304 281.4 104.98L281.78 99.0798C281.656 99.1594 281.508 99.1946 281.36 99.1798Z" fill="#FFDE26"/>
<path d="M46.3801 153.24C35.0201 150.96 21.6201 145.66 16.3801 135.24C10.0001 122.86 14.0801 105.6 20.0001 93.24C20.8401 91.46 21.2601 90.26 23.2401 89.72C27.5401 88.56 32.6601 87.72 36.2201 84.66C33.8821 84.6104 31.5449 84.7844 29.2401 85.18C28.1801 85.32 28.3201 83.96 28.7201 83.36C29.5201 82.16 30.2801 80.92 31.0201 79.66C31.9601 78.04 33.9401 75.46 33.9201 73.52C33.9201 72.86 33.8201 73.22 33.1601 73.66C31.3021 75.2084 29.5885 76.922 28.0401 78.78C26.8801 80.14 26.0401 78.78 26.7001 77.54C27.3601 76.3 30.0001 70.46 28.7001 70.38C27.7401 70.38 25.7801 72.92 25.2201 73.56C24.6601 74.2 24.0601 74.86 23.5201 75.56C22.6801 76.6 21.4001 75.98 22.0001 74.7C22.7385 73.1966 23.3215 71.6218 23.7401 70C23.9601 69.04 24.2001 68.42 23.1601 69.02C22.1967 69.8022 21.3893 70.759 20.7801 71.84C18.7801 74.7 17.3001 77.84 15.4201 80.84C7.43429 93.7404 3.24105 108.628 3.32005 123.8C3.09063 129.381 4.40556 134.918 7.12006 139.8C12.8001 149.52 23.9001 156 35.0001 159.12L46.3801 153.24Z" fill="#FFDE26"/>
<path d="M83.0001 208.84L77.4201 214.2C77.4201 232.986 77.4201 251.754 77.4201 270.5C77.4109 270.874 77.3093 271.238 77.1243 271.564C76.9393 271.888 76.6767 272.162 76.3601 272.36C70.1953 275.706 64.3451 279.602 58.8801 284C58.1001 284.7 56.0801 286 57.2401 286.84C58.3835 287.316 59.6359 287.468 60.8601 287.28C66.5161 286.638 72.0835 285.37 77.4601 283.5C80.0801 282.66 86.0801 281.72 86.2601 278.42C86.2601 278.18 86.4201 281.66 83.0001 208.84Z" fill="white"/>
<path d="M109.34 277.72C100.38 271.96 100.22 272.7 100.22 271.72C100.22 271.72 100.22 233.72 100.22 218.78L94.4 213.16C94.28 215.68 91.36 269.74 91.32 276.86C91.32 279.46 92.82 280.68 95.12 281.5C101 283.6 110.76 286.76 117 287.2C118.216 287.39 119.459 287.308 120.64 286.96C120.647 286.914 120.647 286.866 120.64 286.82C117.393 283.192 113.576 280.118 109.34 277.72Z" fill="white"/>
<path d="M50.6801 169.76C48.5585 165.306 47.2061 160.526 46.6801 155.62L19.0001 169.82C53.0001 169.82 49.6001 169.86 50.6801 169.76Z" fill="#FFDE26"/>
<path d="M98.26 104C96.6 98 93.76 87.78 91.5 80.48C87.92 87.2 81.88 99.26 80.16 106.66C85.9866 104.702 92.1164 103.801 98.26 104Z" fill="#FFDE26"/>
<path d="M59.7601 119.5C64.1647 114.892 69.4219 111.184 75.2401 108.58C68.8087 102.687 61.7613 97.5038 54.2201 93.1198C53.7201 92.8598 52.8401 92.2798 51.9601 91.8398C56.7801 108.96 57.7001 112.22 59.7601 119.5Z" fill="#FFDE26"/>
<path d="M64.78 187.3C60.25 183.736 56.3668 179.42 53.3 174.54C49.9 181.36 45.3 190.88 42.28 197.86C42.08 198.36 41.86 199.32 41.54 200.04C41.54 200 63.52 188 64.78 187.3Z" fill="#FFDE26"/>
<path d="M143.82 142.14C148.76 138 159 129.4 159 129.24C155.64 129.44 162.52 128.78 139.84 131.08C141.615 134.59 142.951 138.304 143.82 142.14Z" fill="#FFDE26"/>
<path d="M25.32 118.74C27.32 120.6 23.96 117.02 47.42 142.74C48.7666 136.637 51.2792 130.851 54.82 125.7C23.22 118.28 25.84 118.9 25.32 118.74Z" fill="#FFDE26"/>
<path d="M128.68 185.26C124.984 188.534 120.843 191.268 116.38 193.38C118.06 195.14 129.6 207.38 130.24 208.08C130.1 206 128.82 187.34 128.68 185.26Z" fill="#FFDE26"/>
<path d="M118.64 109.36C118.64 107.22 119.24 93.7399 119.42 89.1399C118.72 90.0999 117.76 91.1399 117.28 91.8199L107.9 105.3C111.638 106.191 115.247 107.556 118.64 109.36Z" fill="#FFDE26"/>
<path d="M135.22 123.56C143.74 104.76 142.74 107.02 142.98 106.3C142.4 106.56 144.26 105.54 127.18 115.08C130.179 117.585 132.878 120.431 135.22 123.56Z" fill="#FFDE26"/>
<path d="M72.24 212.28L85 197C79.799 195.796 74.8234 193.77 70.26 191C72.88 221.06 71.6 206.76 72.24 212.28Z" fill="#FFDE26"/>
<path d="M141.42 172.46C141.02 171.92 140.48 171.34 140 170.74C138.086 174.498 135.686 177.988 132.86 181.12C136.86 182.16 140.86 183.44 145 184.56L151.98 186.56C151.38 185.84 152.38 187.14 141.42 172.46Z" fill="#FFDE26"/>
<path d="M144.84 150.18C144.935 155.416 144.061 160.624 142.26 165.54C159.86 160.48 123.12 171.28 166.26 158.56C144.84 150 148.22 151.34 144.84 150.18Z" fill="#FFDE26"/>
<path d="M102.62 215.04C103.76 210.92 107.16 198.6 107.74 196.56C102.906 197.89 97.8854 198.418 92.88 198.12C93.96 200 102.54 214.88 102.62 215.04Z" fill="#FFDE26"/>
<path d="M139.9 166.54C147.9 146.54 137.54 124.84 120.64 114C110.795 107.912 99.0866 105.572 87.6576 107.408C76.2286 109.245 65.8428 115.134 58.4 124C51.924 131.875 48.4764 141.806 48.68 152C49.74 178.46 79 202 108.5 193.76C115.466 191.924 121.918 188.516 127.361 183.796C132.804 179.078 137.094 173.174 139.9 166.54ZM81.32 127.36C84.6 126.72 86.02 130.32 86.54 133.36C87.02 130.38 88.44 127 91.38 126.42C95.56 125.6 96.74 131.66 96.84 134.54C96.74 137.72 95.56 143.44 91.54 143.92C88.44 144.28 87 140.88 86.52 137.92C86 140.98 84.52 144.5 81.48 144.86C77.48 145.32 76.26 139.62 76.26 136.7C76.26 133.78 77.52 128.1 81.32 127.36ZM106.04 161.68C104.18 170.22 92.86 173.92 85.28 173.56C80.7668 173.206 76.4154 171.72 72.6268 169.242C68.838 166.764 65.7338 163.372 63.6 159.38C61.4 155.54 58.24 147.38 63.72 144.68C67.32 142.86 71.9 145.44 74.62 147.72C81.04 153.1 81.22 158.18 86.5 157.38C91 156.42 108.08 152.28 106.04 161.68Z" fill="#FFDE26"/>
<path d="M207.66 292C207.66 289.3 207.48 286.62 207.24 284L196.16 283.52C196.04 288.34 195.28 292.74 191.42 296.02C189.88 297.34 185.72 300.02 186.24 300.44C186.76 300.86 189.92 300.3 190.86 300.12C197.16 298.94 198.74 296.12 202.48 294.12C204.1 293.24 205.5 292.74 206.28 294.7C206.44 295.08 206.44 295.46 206.56 295.84C206.68 296.22 207.82 299.02 207.54 296.78C207.758 295.196 207.8 293.592 207.66 292Z" fill="#FF3E74"/>
<path d="M231.44 293.68C229.32 290.48 229.44 286.36 229.44 282.64L218.32 283.76C218.01 287.464 217.93 291.186 218.08 294.9C218.08 295.56 217.72 298.28 219.08 296.9C219.08 296.9 219.4 295.54 219.46 295.4C219.74 294.66 220.34 293.5 221.16 293.24C223.68 292.44 227.16 296.5 229.16 297.62C230.8 298.57 232.564 299.29 234.4 299.76C235.968 300.172 237.566 300.452 239.18 300.6C236.74 298 233.36 296.6 231.44 293.68Z" fill="#FF3E74"/>
<path d="M66.04 157.1C67.6998 160.848 70.4992 163.976 74.04 166.04C74.2792 164.914 74.289 163.75 74.0692 162.62C73.8492 161.49 73.404 160.414 72.76 159.46C71.8982 158.574 70.843 157.9 69.6772 157.49C68.5112 157.082 67.2662 156.948 66.04 157.1Z" fill="#FF3E74"/>
<path d="M381 152.7C380.72 146.7 375.42 143.3 370.2 141.76C360.84 139 350.4 140.62 341.26 143.58C341.81 139.665 342.05 135.713 341.98 131.76C341.98 124.4 340.92 116.22 336.62 110.02C334.542 107.154 331.674 104.955 328.368 103.691C325.062 102.427 321.46 102.152 318 102.9C314.378 103.84 311.23 106.084 309.16 109.2C302.48 118.38 302.52 131.2 303.58 142.2C299.87 141.412 296.106 140.911 292.32 140.7C285.6 140.3 277.76 140.58 272.14 144.7C267.28 148.28 265.26 154.28 268.4 159.66C271.72 165.36 278.2 169.26 283.8 172.36C287.818 174.63 291.98 176.634 296.26 178.36C290.52 185.3 285.38 194.08 284.26 202.96C282.66 215.92 292.74 226.38 305.6 218.38C305.6 233.46 305.6 268.2 305.6 270.5C302.574 272.22 299.614 274.034 296.72 275.94C292.92 278.44 287.56 281.42 285.46 285.66C282.7 291.16 291.46 290.06 294.3 289.66C298.608 288.876 302.852 287.78 307 286.38C309.98 285.44 314.28 284.7 316.62 282.5C318.96 280.3 318.8 277.22 318.62 274.2C318.42 270.02 315.68 213.46 315.42 208.04C316.81 205.784 317.994 203.408 318.96 200.94C322.326 205.506 326.116 209.746 330.28 213.6C329.88 222.08 327.12 274.22 327.16 278.48C327.16 284.14 333.94 285.08 338.24 286.48C343.7 288.2 349.66 290.2 355.44 290.16C357.92 290.16 361.68 289.2 360.96 285.88C360.34 283.06 356.64 280.72 354.52 279.16C351.092 276.648 347.534 274.318 343.86 272.18C343.1 271.72 342.28 271.1 341.46 270.66C341.06 270.44 340.44 270.66 340.44 269.12C340.44 266.42 340.44 256.38 340.44 220.3C347.76 223.18 353.54 220.84 356.26 216.3C359.46 211.02 358.66 204.08 357.3 198.3C355.516 190.828 352.34 183.758 347.94 177.46C356.698 176.322 365.05 173.074 372.28 168C377 164.46 381.28 158.84 381 152.7ZM316.68 278.4C316.5 281.7 310.52 282.64 307.88 283.48C302.51 285.348 296.95 286.614 291.3 287.26C290.07 287.45 288.81 287.298 287.66 286.82C286.52 285.94 288.52 284.68 289.3 283.98C294.766 279.6 300.608 275.71 306.76 272.36C307.082 272.166 307.35 271.894 307.538 271.568C307.726 271.244 307.83 270.876 307.84 270.5C307.84 253.634 307.84 236.766 307.84 219.9L313.84 216.92C316.88 282.38 316.7 278.18 316.68 278.4ZM347.4 277.72C351.622 280.122 355.426 283.196 358.66 286.82V286.96C357.478 287.306 356.236 287.388 355.02 287.2C348.74 286.76 339.02 283.6 333.16 281.5C330.86 280.68 329.34 279.5 329.36 276.86C329.36 270.24 329.22 279.74 332.04 221.38L338.28 220.76C338.28 235.04 338.28 271.72 338.28 271.72C338.28 272.7 338.36 272 347.4 277.72ZM371.26 166.18C366.428 169.444 361.05 171.816 355.38 173.18C352.228 174.086 349.012 174.754 345.76 175.18C344.9 175.18 343.98 176.94 344.56 177.68C348.682 183.016 351.848 189.024 353.92 195.44C355.78 200.94 357.6 207.94 355.58 213.66C353.56 219.38 346.76 219.52 341.9 217.52C338.492 216.044 335.35 214.018 332.6 211.52C327.842 207.242 323.594 202.43 319.94 197.18C319.36 196.32 318.24 197.72 318.06 198.24C316.05 204.888 312.076 210.772 306.66 215.12C302.36 218.36 296.66 219.82 292.18 216.8C281.42 209.64 287.52 194.8 292.84 186.38C294.618 183.554 296.626 180.878 298.84 178.38C299.14 178.04 299.82 176.58 299.04 176.38C290.08 173.02 280.3 168.38 273.5 161.58C269.5 157.58 266.92 151.94 272.1 147.58C277.28 143.22 284.74 143.28 290.86 143.58C295.454 143.806 300.016 144.475 304.48 145.58C305.34 145.8 306.16 144.26 306.08 143.58C304.98 133.58 304.08 121.38 309.5 112.26C310.306 110.71 311.418 109.34 312.77 108.233C314.12 107.126 315.682 106.305 317.36 105.82C320.416 105.134 323.602 105.304 326.566 106.314C329.53 107.323 332.158 109.131 334.16 111.54C338.56 117.16 339.64 124.88 339.86 131.8C340.2 142.92 338.5 145.9 339.12 146.58C339.22 146.82 339.44 146.92 339.8 146.8C347.828 143.752 356.466 142.655 365 143.6C381.38 146 383 157.76 371.26 166.18Z" fill="#0D128A"/>
<path d="M327.42 140.46C323.98 141.22 322.8 146.1 322.8 149.04C322.8 151.98 323.96 157.04 327.62 156.44C331.28 155.84 332.36 150.78 332.46 147.82C332.36 145.2 331.26 139.6 327.42 140.46ZM327.04 153.34C323.82 151.34 324.54 141.34 328.22 143.52C329.92 144.56 330.22 147.3 330.22 149.04C330.22 150.78 329.58 154.9 327 153.34H327.04Z" fill="#0D128A"/>
<path d="M327.62 145.84C326.12 146.22 325.4 148.18 325.4 149.56C325.4 150.62 325.92 152.38 327.4 152.1C328.88 151.82 329.64 149.88 329.68 148.36C329.54 147.3 329 145.46 327.62 145.84Z" fill="#0D128A"/>
<path d="M316.04 156C319.72 155.5 320.78 150.34 320.88 147.4C320.88 144.78 319.68 139.18 315.84 140.04C312.4 140.8 311.22 145.66 311.22 148.62C311.22 151.58 312.38 156.42 316.04 156ZM316.66 143.1C318.34 144.12 318.66 146.88 318.66 148.62C318.66 150.36 317.96 154.48 315.42 152.92C312.24 150.88 313 140.76 316.66 143.02V143.1Z" fill="#0D128A"/>
<path d="M318.5 147.64C318.36 146.4 317.38 144.88 316.06 145.44C315.372 145.852 314.838 146.478 314.538 147.221C314.238 147.965 314.19 148.786 314.4 149.56C315.14 153.08 319 151.72 318.5 147.64Z" fill="#0D128A"/>
<path d="M311.74 137.54C312.066 137.415 312.354 137.208 312.576 136.938C312.796 136.667 312.942 136.344 313 136C313.194 135.364 313.616 134.822 314.184 134.476C314.75 134.129 315.426 134.003 316.08 134.12C317.26 134.12 318.46 131.48 317.12 131.36C312.06 130.78 309.5 138 311.74 137.54Z" fill="#0D128A"/>
<path d="M327.62 130.36C326.44 130.26 325.24 133.02 326.58 133.12C327.816 133.224 328.99 133.709 329.938 134.508C330.888 135.306 331.566 136.38 331.88 137.58C332.06 138.28 332.8 138.08 333.22 137.74C333.51 137.501 333.732 137.191 333.866 136.841C333.998 136.49 334.038 136.11 333.98 135.74C333.598 134.3 332.782 133.012 331.646 132.05C330.508 131.088 329.104 130.498 327.62 130.36Z" fill="#0D128A"/>
<path d="M330.26 160C328.524 161.584 327.352 163.69 326.92 166C324.666 166.75 322.26 166.93 319.92 166.52C319.578 163.85 318.52 161.32 316.86 159.2C316.04 158.14 314.26 160.56 314.98 161.48C316.318 163.118 317.23 165.062 317.638 167.138C318.046 169.212 317.938 171.356 317.32 173.38C316.7 175.38 318.76 175.06 319.32 173.56C319.754 172.206 320.016 170.8 320.1 169.38C322.342 169.712 324.632 169.45 326.74 168.62C326.728 170.734 327.004 172.84 327.56 174.88C327.92 176.34 329.92 174.18 329.56 173.08C328.66 169.48 327.82 165.08 330.86 162.12C331.78 161.14 331.7 158.56 330.26 160Z" fill="#0D128A"/>
<path d="M280.78 107.76C281.96 107.76 283.14 105.06 281.82 105C264.296 104.232 246.986 109.085 232.414 118.849C217.842 128.614 206.772 142.78 200.82 159.28C196.212 161.896 192.73 166.118 191.04 171.14C191.04 170.34 191.26 169.54 191.36 168.72C192.958 159.406 196.296 150.477 201.2 142.4C209.306 128.532 221.074 117.163 235.214 109.54C249.354 101.916 265.318 98.3318 281.36 99.18C282.52 99.18 283.7 96.48 282.4 96.42C233.76 94.04 193.26 130.62 188.4 175.36C184.851 173.662 180.794 173.354 177.029 174.498C173.264 175.642 170.064 178.154 168.06 181.54C164.76 187.06 166.64 193.04 170.32 197.68C167.015 197.156 163.633 197.868 160.82 199.68C153.8 204.6 150.18 219.86 159.74 224.42C158.12 225.762 156.874 227.5 156.124 229.466C155.374 231.432 155.145 233.56 155.46 235.64C155.517 237.024 156.083 238.336 157.051 239.326C158.019 240.316 159.319 240.912 160.7 241C163.029 240.874 165.293 240.188 167.3 239C166.772 240.838 166.582 242.754 166.74 244.66C166.874 246.012 167.302 247.32 167.993 248.49C168.683 249.662 169.621 250.668 170.74 251.44C168.687 252.406 166.367 252.646 164.16 252.12C160.42 251.2 157.52 248.28 154.16 246.54C151.9 245.36 149.58 245.32 148.68 248.12C148.497 248.608 148.421 249.13 148.455 249.652C148.49 250.172 148.634 250.68 148.88 251.14C147.702 250.958 146.511 250.878 145.32 250.9C143.88 250.9 142.64 253.7 144.86 256.36C144.043 256.184 143.19 256.29 142.44 256.66C142.036 256.88 141.694 257.196 141.442 257.58C141.19 257.964 141.038 258.404 140.998 258.862C140.959 259.32 141.033 259.78 141.215 260.202C141.397 260.624 141.68 260.994 142.04 261.28C143.55 262.382 145.172 263.32 146.88 264.08C151.761 267.026 157.217 268.888 162.88 269.54C167.91 269.894 172.898 268.412 176.921 265.372C180.943 262.33 183.728 257.936 184.76 253C186.301 252.506 187.738 251.734 189 250.72C189.63 251.746 190.389 252.688 191.26 253.52C192.272 254.672 193.368 255.75 194.54 256.74C193.96 288.32 194.18 288.22 193.24 290.64C191.56 294.94 185.68 296.18 183.98 300.06C181.42 305.88 194.36 301.64 196.26 300.68C198.436 299.368 200.546 297.946 202.58 296.42C203.66 295.84 203.9 295.74 204.4 296.86C204.9 297.98 204.56 299.14 205.56 300C205.888 300.306 206.306 300.5 206.752 300.554C207.196 300.608 207.648 300.52 208.04 300.3C210.26 299.14 209.78 295.52 209.84 293.5C210.04 286.42 209.38 281.28 207.28 260.76C211.44 260.44 213.54 258.36 216.66 255.38C217.4 255.76 218.18 256.1 218.96 256.42C216.46 281.1 215.88 286.04 215.82 291C215.58 293.702 215.68 296.424 216.12 299.1C216.68 301.22 219.3 301.1 220.56 298.5C220.826 297.688 221.038 296.86 221.2 296.02C223.62 296.76 225.42 298.9 227.58 300.16C229.878 301.47 232.39 302.364 235 302.8C236.66 303.08 239.38 303.64 241 302.56C241.53 302.198 241.91 301.654 242.068 301.032C242.226 300.41 242.152 299.752 241.86 299.18C241.812 299.004 241.716 298.844 241.58 298.72C239.58 296.24 236.48 294.9 234.34 292.5C231.46 289.28 231.82 284.62 231.76 280.6L231.34 258.18C234.546 257.89 237.624 256.782 240.28 254.96C240.976 261.266 242.364 267.478 244.42 273.48C245 275.12 246.64 281.38 249.44 280C249.894 279.724 250.282 279.352 250.576 278.91C250.868 278.466 251.062 277.966 251.14 277.44C252.04 278.94 253.14 279.92 254.46 279.02C254.97 278.63 255.388 278.132 255.682 277.562C255.976 276.992 256.14 276.362 256.16 275.72C256.762 276.418 257.432 277.054 258.16 277.62C258.7 278.04 259.48 277.12 259.7 276.76C262.58 271.92 258.72 266.46 257.34 261.72C256.226 257.868 255.556 253.904 255.34 249.9C265.72 251.54 270.1 244.44 268.52 234.24C271.682 233.278 274.49 231.404 276.594 228.854C278.696 226.302 280 223.188 280.34 219.9C280.74 212.92 276.54 206.58 269.66 206.36C272.72 202.24 275.2 196.96 274.5 192C273.52 185.06 262.82 179.16 257.06 183.62C256.814 180.558 255.742 177.622 253.96 175.12C248.94 168.5 239.96 170.7 233.38 173.52C232.604 170.668 231.468 167.926 230 165.36C242.178 149.644 259.764 139.015 279.34 135.54C280.44 135.36 281.34 132.56 279.86 132.84C259.67 136.487 241.54 147.472 228.96 163.68C227.456 161.364 225.554 159.332 223.34 157.68C229.95 148.478 238.438 140.785 248.244 135.11C258.05 129.434 268.948 125.907 280.22 124.76C281.26 124.4 282.06 121.92 280.56 122.08C268.856 123.33 257.552 127.063 247.406 133.03C237.258 138.996 228.502 147.059 221.72 156.68C219.398 155.356 216.752 154.706 214.08 154.8C220.802 143.039 230.438 133.205 242.06 126.245C253.682 119.285 266.898 115.433 280.44 115.06C281.62 115.06 282.76 112.26 281.48 112.28C267.162 112.776 253.218 116.972 241.002 124.459C228.788 131.945 218.72 142.467 211.78 155C208.944 155.482 206.198 156.4 203.64 157.72C209.676 142.383 220.358 129.32 234.192 120.36C248.026 111.401 264.316 106.995 280.78 107.76ZM163.96 266.86C157.2 266.36 151.12 263.14 145.34 259.82L144.92 259.54C147.14 259.624 149.345 259.94 151.5 260.48C152.5 260.66 153.84 258.2 152.78 257.78C151.501 257.322 150.28 256.718 149.14 255.98C148.119 255.374 147.178 254.642 146.34 253.8C148.457 253.952 150.54 254.416 152.52 255.18C153.58 255.6 154.92 253.6 154.22 252.74C153.52 251.88 151 250.38 151 249.24C151 248.1 152.12 248.9 152.78 249.24C156.08 250.96 158.9 253.66 162.52 254.76C164.293 255.288 166.167 255.382 167.984 255.034C169.801 254.686 171.508 253.906 172.96 252.76C176.063 254.08 179.494 254.43 182.8 253.76C181.753 257.84 179.274 261.408 175.816 263.812C172.357 266.218 168.149 267.3 163.96 266.86ZM207.66 292C207.79 293.554 207.75 295.116 207.54 296.66C207.84 298.96 206.54 296.24 206.56 295.72C206.58 295.2 206.44 294.96 206.28 294.58C205.5 292.58 204.1 293.12 202.48 294C198.74 296 197.16 298.88 190.86 300C189.92 300.18 187.04 300.94 186.24 300.32C185.44 299.7 189.88 297.22 191.42 295.9C195.28 292.62 196.04 288.22 196.16 283.4L207.24 283.88C207.48 286.54 207.66 289.22 207.66 292ZM196.22 280.66C196.22 274.66 196.44 268.84 196.54 262.92L205 262C205.666 268.36 206.334 274.726 207 281.1L196.22 280.66ZM220.62 260.18L228.98 259.58C229.1 266.42 229.24 273.24 229.36 280.06L218.52 281.16C219.2 274 219.9 267.1 220.62 260.1V260.18ZM231.44 293.76C233.44 296.68 236.74 298.1 239.08 300.6C237.466 300.452 235.868 300.172 234.3 299.76C232.464 299.29 230.7 298.57 229.06 297.62C227.06 296.5 223.64 292.44 221.06 293.24C220.24 293.5 219.64 294.66 219.36 295.4C219.36 295.54 219.08 296.8 218.98 296.9C217.62 298.36 218.02 295.64 217.98 294.9C217.83 291.186 217.91 287.464 218.22 283.76L229.34 282.64C229.44 286.36 229.32 290.48 231.44 293.68V293.76ZM256.06 266.62C256.78 268.62 258.58 271.68 258.46 274.16C257.034 272.796 255.944 271.118 255.28 269.26C254.72 267.72 253.02 270.08 253.28 271.06C253.598 272.662 253.778 274.288 253.82 275.92C253.82 276.42 253.82 276.42 253.56 275.92C252.32 274.92 251.56 271.92 250.94 270.42C250.32 268.92 248.68 271.04 248.8 271.92C249.094 273.67 249.188 275.448 249.08 277.22C247.4 276.12 246.26 271.22 245.86 270C244.106 264.502 242.92 258.84 242.32 253.1C242.8 252.54 242.32 253.1 246.82 247.24C248.822 248.198 250.912 248.962 253.06 249.52C253.146 255.316 254.16 261.062 256.06 266.54V266.62ZM210.06 158.06C217.74 156.58 223.28 160.28 227.38 167.04C231.78 174.3 230.68 177.04 231.94 176.58C232.92 176.46 246.24 169.14 252.22 178C253.902 180.602 254.786 183.642 254.76 186.74C254.76 188.16 256.24 187.2 256.64 186.58C258.64 183.28 263.94 185.38 266.64 186.76C268.306 187.468 269.724 188.652 270.718 190.164C271.71 191.678 272.234 193.45 272.22 195.26C271.662 199.728 269.66 203.892 266.52 207.12C266.02 207.68 265.56 209.44 266.82 209.26C273.32 208.34 277.9 213.68 277.98 219.94C278.06 226.2 273 230.72 267.2 232.08C266.748 232.238 266.37 232.554 266.132 232.97C265.892 233.384 265.81 233.87 265.9 234.34C268.06 243.9 264.84 249.04 255.08 246.96C252.464 246.374 249.926 245.482 247.52 244.3C247.06 244.06 246.5 244.46 246.22 244.82C243.88 247.9 241.2 251.62 240.58 252.22C238.83 253.618 236.774 254.584 234.58 255.04C228.814 256.284 222.794 255.412 217.62 252.58C217.44 252.51 217.242 252.496 217.054 252.54C216.866 252.582 216.694 252.68 216.56 252.82C213.02 256.18 211.12 258.82 204.56 258C199.12 257.24 195.46 254.38 191.98 250.14C190.64 248.54 190.44 246.38 189.06 247.96C184.24 253.54 171.82 251.96 169.22 245.42C168.46 243.54 168.22 238.84 170.04 237.52C170.82 236.94 171.24 234.4 169.72 235.22C166.56 236.96 160.38 240.84 158 236.14C157.565 235.112 157.341 234.006 157.341 232.89C157.341 231.774 157.565 230.668 158 229.64C158.6 228.08 160.74 225.54 162.58 225.44C163.64 225.44 165.04 222.86 163.62 222.68C155.4 221.74 155.08 212.02 157.88 206.04C160.9 199.58 168.8 199.34 174.58 202.04C175.72 202.56 177.08 200.18 176.1 199.42C171.38 195.8 165.82 188.52 169.52 182.52C174.22 174.88 184.52 175.04 191.2 180.9C192.08 181.66 193.2 179.38 193 178.68C189.66 168.94 200.1 159.88 210.12 158L210.06 158.06Z" fill="#0D128A"/>
<path d="M222.66 218.58C227.78 217.74 229.22 210.58 229.32 206.34C229.32 202.56 227.68 194.34 222.22 195.3C217.16 196.14 215.56 203.3 215.56 207.54C215.58 211.34 217.24 219.46 222.66 218.58ZM223.08 198.22C226.38 199.5 227.08 204.6 227.08 207.54C227.08 210.16 226 217.28 221.74 215.66C215.64 213.28 216.86 195.82 223 198.22H223.08Z" fill="#0D128A"/>
<path d="M222.08 209.54C223.98 209.2 224.8 206.74 224.88 204.82C224.88 203.44 224.22 200.82 222.28 201.32C220.34 201.82 219.58 204.34 219.58 206.04C219.6 207.4 220.24 209.88 222.08 209.54Z" fill="#0D128A"/>
<path d="M206.62 194.3C201.56 195.12 199.96 202.3 199.96 206.54C199.96 210.34 201.64 218.54 207.06 217.58C212.18 216.74 213.62 209.58 213.72 205.32C213.62 201.54 212.08 193.38 206.62 194.3ZM206.2 214.64C200.04 212.28 201.26 194.82 207.48 197.22C213.7 199.62 212.4 217.04 206.2 214.64Z" fill="#0D128A"/>
<path d="M205.5 206C205.5 207.36 206.14 209.84 207.98 209.5C209.82 209.16 210.7 206.72 210.78 204.78C210.78 203.4 210.12 200.78 208.18 201.28C206.24 201.78 205.5 204.34 205.5 206Z" fill="#0D128A"/>
<path d="M210.66 222.46C210.46 220.68 208.36 222.46 208.48 223.68C208.74 226.26 210.48 230.32 213.72 229.68C216.96 229.04 218.52 224.58 218.94 221.68C219.24 219.68 216.94 220.94 216.94 222.22C216.7 223.84 215.9 227.54 213.54 226.92C211.74 226.4 210.82 224 210.66 222.46Z" fill="#0D128A"/>
<path d="M200.4 187.28C199.54 188.9 201.1 189.82 201.96 188.2C202.598 187.006 203.468 185.95 204.518 185.094C205.57 184.24 206.78 183.602 208.08 183.22C209.14 182.9 210.08 180.08 208.6 180.52C206.852 181.044 205.226 181.914 203.818 183.074C202.41 184.234 201.248 185.664 200.4 187.28Z" fill="#0D128A"/>
<path d="M223.78 182.44C225.41 182.716 226.948 183.384 228.262 184.388C229.576 185.392 230.626 186.7 231.32 188.2C231.96 189.62 233.88 187.42 233.32 186.4C232.55 184.656 231.364 183.13 229.864 181.954C228.364 180.778 226.596 179.99 224.72 179.66C223.68 179.46 222.44 182.2 223.78 182.44Z" fill="#0D128A"/>
<path d="M166.14 155.34C143.6 146.32 146.64 147.48 144.62 146.86C144.62 146.02 144.4 145.2 144.26 144.38L159.86 131.2C164.86 126.98 163.66 126 159.86 126.4L138.54 128.56C137.88 127.42 137.2 126.34 136.54 125.26C137.72 122.64 142.84 111.26 144.2 108.3C145.88 104.62 147.62 101.18 142.54 104.02L125.32 113.6C123.84 112.496 122.305 111.468 120.72 110.52C120.72 107.6 121.34 94.1999 121.5 90.4199C121.7 85.0799 121.5 82.4199 117.94 87.6999L105.94 104.88C104.26 104.56 102.56 104.32 100.84 104.16C100.84 104.16 95 83.3799 94.3 80.5599C93.94 79.3199 93.82 77.6199 92.8 76.7599C92.6 76.5799 92.22 76.7599 92.04 76.7599C90.4 77.5999 89.58 80.18 88.76 81.74C85.18 88.6 79.84 99.5399 78.06 107.06C71.9546 101.552 65.4282 96.5303 58.54 92.0399C56.66 90.8999 52.9 88.0399 50.54 88.5599C50.1958 88.6851 49.8924 88.9024 49.6632 89.188C49.434 89.4736 49.2876 89.8167 49.24 90.1799C48.76 91.8799 50.04 94.36 50.48 95.96L57.72 121.66C56.68 122.92 56.94 122.62 56.56 123.12C55.1 122.64 58.72 123.52 24.04 115.42C22.34 115.02 20.04 116.2 21.18 118.32C22.0924 119.576 23.146 120.724 24.32 121.74L46.72 146.3C46.56 147.62 46.46 148.94 46.42 150.3C34.84 148 21.16 141.82 17.12 130.6C14.28 122.6 15.12 113.96 17.12 105.98C18.3114 101.352 20.0152 96.8705 22.2 92.6199C27.76 91.1599 34.1 90.0399 38.06 85.5399C39.42 83.9799 39.86 81.9999 37.34 81.8599C35.3784 81.8045 33.416 81.9385 31.48 82.2599C32.28 80.9599 33.04 79.6399 33.74 78.2599C34.44 76.8799 36.96 72.9199 35.74 71.0399C34.82 69.5199 32.56 71.0399 30.5 73.0399C31.34 70.6199 31.7 68.2399 30.14 67.5799C28.9 67.0399 27.24 68.1999 25.74 69.7199C26.22 67.8999 26.26 66.2399 24.98 65.7199C22.34 64.7999 17.84 72.4999 16.42 74.9199C15.86 75.8999 13.92 79.3799 14.16 79.0799C7.93378 88.6861 3.84165 99.5167 2.16005 110.84C1.00005 118.12 0.160045 126.16 1.76005 133.42C4.82005 147.3 17.76 156.22 31.16 160.86L21.52 166C19.3424 166.936 17.2308 168.018 15.2 169.24C14.3 169.88 12.08 172.58 16.88 172.58H49.58C50.4428 172.684 51.3112 172.73 52.18 172.72C52.08 172.92 42.38 192.72 39.74 199.18C39.069 200.262 38.7672 201.532 38.88 202.8C38.9098 202.922 38.9752 203.034 39.0676 203.118C39.1602 203.204 39.2758 203.26 39.4 203.28C40.4342 203.2 41.422 202.818 42.24 202.18C70.02 187.1 66.24 189.34 66.88 188.86L67.74 189.46C67.74 191.12 68.1 192.88 68.26 194.5C68.5 197.32 69.5 208.74 69.76 211.64C69.76 212.78 69.76 214.6 70.44 215.64C70.5202 215.738 70.627 215.81 70.7476 215.85C70.8682 215.89 70.9974 215.892 71.12 215.86C72.18 215.54 72.7 214.7 73.4 213.86L75.14 211.76C75.14 229.06 75.14 268.24 75.14 270.54C72.14 272.26 69.14 274.08 66.26 275.98C62.48 278.48 57.12 281.46 55 285.7C52.26 291.2 61 290.1 63.84 289.7C68.1542 288.918 72.4056 287.822 76.56 286.42C79.52 285.48 83.84 284.74 86.18 282.54C88.52 280.34 88.36 277.26 88.18 274.24C87.98 270.06 85 208.36 84.62 200.36C85.3596 199.388 86.1542 198.46 87 197.58C87.8 197.726 88.6 197.846 89.4 197.94L92.7 203.66C92.14 215.46 89.04 274.26 89.08 278.52C89.08 284.18 95.88 285.12 100.18 286.52C105.64 288.24 111.58 290.24 117.38 290.2C119.84 290.2 123.62 289.24 122.9 285.92C122.28 283.1 118.58 280.76 116.46 279.2C113.058 276.622 109.527 274.218 105.88 272C104.966 271.358 104.011 270.776 103.02 270.26C102.844 270.156 102.701 270.006 102.605 269.826C102.51 269.646 102.467 269.444 102.48 269.24C102.36 267.24 102.38 275.42 102.48 218.74C102.689 218.688 102.882 218.586 103.04 218.44C104.074 217.162 104.72 215.614 104.9 213.98C105.76 210.84 109.1 198.78 109.9 195.98C111.14 195.58 112.34 195.14 113.54 194.66L127.38 209.18C130.46 212.42 132.96 214.78 132.4 206.62C132.18 203.36 130.92 184.62 130.84 183.58C134.08 184.62 125.6 182.22 152.4 189.72C153.36 190 154.26 190.46 155.16 189.72C155.407 189.542 155.615 189.314 155.769 189.052C155.924 188.788 156.022 188.496 156.058 188.194C156.094 187.89 156.066 187.584 155.977 187.292C155.888 187 155.739 186.732 155.54 186.5C153.28 183.06 152.96 183.08 143.2 170C142.88 169.54 142.28 168.92 141.78 168.3L165.48 161.3C173.26 159.04 171.7 157.56 166.14 155.34ZM159 129.24C158.56 129.66 157 131.02 143.76 142.14C142.885 138.303 141.542 134.589 139.76 131.08C162.5 128.78 155.72 129.44 159 129.24ZM143 106.3C142.72 107.12 135.16 123.76 135.24 123.56C132.91 120.434 130.225 117.588 127.24 115.08C144.26 105.54 142.36 106.56 143 106.3ZM117.28 91.82C117.76 91.1 118.72 90.0999 119.42 89.1399C119.24 93.7399 118.72 107.14 118.64 109.36C115.242 107.581 111.634 106.237 107.9 105.36L117.28 91.82ZM91.5 80.4799C92.54 83.8399 95.28 93.3599 98.26 104C92.1164 103.801 85.9866 104.702 80.16 106.66C81.86 99.28 87.94 87.1599 91.5 80.4799ZM51.96 91.8399C52.84 92.2799 53.72 92.8599 54.22 93.1199C61.762 97.5025 68.8096 102.686 75.24 108.58C69.4218 111.184 64.1646 114.892 59.76 119.5C59.22 117.56 51.9 91.6199 51.96 91.8399ZM25.32 118.74C25.84 118.9 23.32 118.32 54.82 125.66C51.2792 130.811 48.7666 136.597 47.42 142.7C24.04 117.1 27.3 120.56 25.32 118.74ZM7.12005 139.8C4.40555 134.918 3.09062 129.381 3.32004 123.8C3.21948 108.6 7.41381 93.6807 15.42 80.7599C17.3 77.8199 18.76 74.6199 20.78 71.7599C21.3892 70.6787 22.1966 69.7221 23.16 68.9399C24.2 68.3399 23.96 68.9399 23.74 69.9199C23.3036 71.5859 22.6936 73.2013 21.92 74.7399C21.32 76.0199 22.6 76.7399 23.44 75.5999C23.98 74.9199 24.54 74.2599 25.14 73.5999C25.74 72.9399 27.66 70.3399 28.62 70.4199C29.92 70.4199 27.18 76.5199 26.62 77.5799C26.06 78.6399 26.8 80.1799 27.96 78.8199C29.484 76.9725 31.1708 75.2657 33 73.7199C33.66 73.2799 33.76 72.9199 33.76 73.5799C33.76 75.5799 31.76 78.0999 30.86 79.7199C30.12 80.9799 29.36 82.2199 28.56 83.4199C28.16 84.0199 28.02 85.42 29.08 85.24C31.3848 84.8452 33.722 84.6709 36.06 84.7199C32.5 87.6799 27.38 88.7199 23.08 89.7799C21.08 90.3199 20.68 91.5199 19.84 93.2999C13.84 105.74 9.84004 122.96 16.22 135.3C21.54 145.64 34.98 150.92 46.22 153.3L35 159.12C23.9 156 12.8 149.52 7.12005 139.8ZM18.96 169.8L46.66 155.6C47.1912 160.504 48.5434 165.284 50.66 169.74C49.5 169.86 18.76 169.82 19 169.82L18.96 169.8ZM60.96 189.46L41.54 200C41.78 199.46 42 197.18 53.3 174.5C56.3606 179.384 60.2448 183.702 64.78 187.26C63.52 188 62.26 188.8 61 189.48L60.96 189.46ZM86.26 278.4C86.08 281.7 80.08 282.64 77.46 283.48C72.084 285.352 66.5164 286.62 60.86 287.26C59.6358 287.448 58.3834 287.296 57.24 286.82C56.08 285.94 58.1 284.68 58.88 283.98C64.3394 279.59 70.183 275.702 76.34 272.36C76.6566 272.162 76.9192 271.888 77.1042 271.564C77.2892 271.238 77.3908 270.874 77.4 270.5C77.4 251.74 77.4 232.974 77.4 214.2L83 208.84C86.38 280.92 86.26 278.2 86.26 278.4ZM72.26 212.28C71.76 207.9 72.74 219.38 70.26 191.06C74.8234 193.83 79.799 195.856 85 197.06L72.26 212.28ZM109.36 277.72C113.582 280.122 117.385 283.196 120.62 286.82C120.627 286.866 120.627 286.914 120.62 286.96C119.44 287.31 118.196 287.392 116.98 287.2C110.72 286.76 100.98 283.6 95.14 281.5C92.84 280.68 91.32 279.5 91.34 276.86C91.34 270.7 91.34 277.76 94.42 213.16L100.24 218.78C100.24 233.72 100.24 271.72 100.24 271.72C100.22 272.7 100.34 272 109.34 277.72H109.36ZM102.64 215.04C102.26 214.28 103.24 216.02 92.9 198.12C97.9052 198.414 102.925 197.886 107.76 196.56C107.52 197.3 103.82 210.76 102.62 215.04H102.64ZM116.4 193.38C120.863 191.268 125.004 188.534 128.7 185.26C129 190 130.24 208 130.24 208C127.14 204.64 133.58 211.44 116.38 193.38H116.4ZM152 186.52C136.5 182.18 137.24 182.22 132.88 181.12C135.706 177.988 138.106 174.498 140.02 170.74C140.5 171.34 141.04 171.92 141.44 172.46C141.84 173 151.48 186 151.98 186.52H152ZM140 166.52C137.267 172.98 133.127 178.75 127.882 183.406C122.637 188.064 116.418 191.492 109.68 193.44C69.96 205.32 30.44 160.4 57.78 124.82C64.9934 115.797 75.2108 109.669 86.5674 107.554C97.9238 105.439 109.662 107.479 119.64 113.3C137.18 124 147.98 146.12 139.9 166.54L140 166.52ZM142.36 165.52C144.118 160.696 144.999 155.594 144.96 150.46C144.96 149.94 143.24 149.32 166.28 158.46C157 161.32 142.48 165.48 142.26 165.54L142.36 165.52Z" fill="#0D128A"/>
<path d="M76.26 136.7C76.26 139.62 77.5 145.32 81.48 144.86C84.6 144.5 86 140.86 86.52 137.92C87 140.82 88.52 144.22 91.54 143.92C95.54 143.44 96.74 137.72 96.84 134.54C96.74 131.66 95.56 125.6 91.38 126.42C88.44 127 87.02 130.42 86.54 133.36C86.02 130.38 84.54 126.78 81.32 127.36C77.52 128.1 76.26 133.52 76.26 136.7ZM91.82 129.22C94.14 130.04 94.6 133.68 94.66 135.7C94.72 137.72 93.92 142.4 91 140.82C90.0192 140.22 89.3042 139.269 89 138.16C90.06 139.3 92.5 138.16 92.64 134.62C92.5 130.74 89.34 131.22 88.44 134.38C88.52 132.52 89.18 128.3 91.82 129.22ZM81.82 130.24C84.14 131.04 84.58 134.68 84.64 136.7C84.7 138.72 83.84 143.4 81 141.84C77.2 139.8 77.78 128.84 81.76 130.24H81.82Z" fill="#0D128A"/>
<path d="M81.26 139.58C82.86 139.26 83.58 137.26 83.64 135.58C83.64 134.44 83.1 132.48 81.64 132.84C80.18 133.2 79.32 135.34 79.34 136.84C79.24 138 79.78 139.88 81.26 139.58Z" fill="#0D128A"/>
<path d="M86.5 157.38C81.24 158.18 81 153.08 74.62 147.72C71.9 145.44 67.32 142.86 63.72 144.68C58.24 147.48 61.4 155.54 63.6 159.38C65.7338 163.372 68.838 166.764 72.6268 169.242C76.4154 171.72 80.7668 173.206 85.28 173.56C92.86 173.92 104.18 170.22 106.04 161.68C108.08 152.28 91 156.42 86.5 157.38ZM74.04 166C70.4992 163.936 67.6998 160.808 66.04 157.06C67.2662 156.908 68.5112 157.042 69.6772 157.45C70.843 157.86 71.8982 158.534 72.76 159.42C73.404 160.374 73.8492 161.45 74.0692 162.58C74.289 163.71 74.2792 164.874 74.04 166Z" fill="#0D128A"/>
<path d="M72.7 121.64C73.34 121.74 74.02 120.86 74.18 120.34C74.4056 119.608 74.8588 118.967 75.474 118.51C76.089 118.053 76.8338 117.804 77.6 117.8C79.14 117.8 79.74 114.98 78.64 115.02C77.1784 115.121 75.783 115.668 74.6422 116.587C73.5012 117.506 72.6698 118.753 72.26 120.16C72.12 120.66 71.98 121.52 72.7 121.64Z" fill="#0D128A"/>
</svg>
