<svg width="366" height="381" viewBox="0 0 366 381" fill="none" xmlns="http://www.w3.org/2000/svg">
<path d="M242.602 341.437C230.602 354.077 189.682 353.997 180.962 353.837C154.725 356.139 128.354 351.303 104.642 339.837C98.5023 343.077 67.7223 360.137 60.6423 364.917C72.6423 377.357 204.462 380.457 264.222 371.517C271.122 370.477 280.482 369.517 286.482 365.697C284.764 364.753 283.132 363.663 281.602 362.437C271.942 356.577 251.622 346.097 242.602 341.437Z" fill="white"/>
<path d="M346.862 204.617C332.862 195.857 316.682 197.957 303.562 207.257C301.242 208.915 299.024 210.711 296.922 212.637C297.678 217.487 298.184 222.375 298.442 227.277C308.102 215.017 323.222 204.757 337.662 210.837C340.796 211.989 343.62 213.853 345.91 216.283C348.202 218.713 349.896 221.641 350.862 224.837C354.242 237.237 348.662 251.297 342.122 261.697C328.742 282.957 305.342 297.017 280.362 296.297C278.184 299.581 275.842 302.751 273.342 305.797C284.804 307.323 296.46 306.275 307.466 302.729C318.472 299.183 328.548 293.227 336.962 285.297C349.142 274.097 358.862 258.997 361.822 242.557C364.602 227.517 360.162 212.917 346.862 204.617Z" fill="white"/>
<path d="M105.402 336.197C165.262 365.817 234.902 349.197 271.862 304.057C289.562 282.477 297.122 257.817 295.862 229.097C295.522 222.397 294.862 217.957 294.242 213.537C288.822 220.517 271.682 224.637 263.202 226.457C221.962 235.277 162.642 235.877 120.882 232.257C102.182 230.637 82.8823 228.457 65.0423 222.617C59.9823 220.957 48.7423 217.397 47.7223 210.757C45.9407 221.447 45.2373 232.287 45.6223 243.117C47.7423 284.697 67.5223 317.437 105.402 336.197Z" fill="white"/>
<path d="M354.482 205.717C341.602 194.077 323.742 192.717 308.762 200.917C304.332 203.377 300.198 206.337 296.442 209.737C294.762 199.857 284.442 196.917 273.702 193.937C206.122 175.177 51.5823 183.697 45.7023 208.097C43.4163 218.419 42.4485 228.991 42.8223 239.557C43.2023 261.557 48.6023 283.557 60.6623 302.177C70.9861 317.551 85.1469 329.961 101.742 338.177C92.1223 343.477 72.9423 354.057 63.7423 359.757C61.4223 361.197 55.7423 363.757 58.2023 367.337C62.6023 373.997 101.202 377.037 109.122 377.657C143.022 380.187 177.043 380.687 211.002 379.157C228.062 378.457 265.002 376.357 281.282 370.957C283.722 370.137 291.442 367.197 289.162 363.197C287.282 359.917 242.022 337.037 238.662 335.337C250.662 328.291 261.464 319.379 270.662 308.937C274.706 309.563 278.79 309.891 282.882 309.917C319.242 309.677 353.082 282.877 362.882 247.917C367.042 233.557 366.302 216.377 354.482 205.717ZM298.602 230.837C306.482 220.537 318.762 210.337 331.442 212.677C338.062 213.917 345.022 218.377 347.602 224.797C352.062 235.937 346.862 249.497 341.082 259.157C329.082 279.437 307.082 293.337 282.522 292.937C293.842 274.257 299.434 252.665 298.602 230.837ZM242.602 341.437C251.782 346.137 271.982 356.557 281.642 362.337C283.172 363.563 284.804 364.653 286.522 365.597C280.522 369.477 271.102 370.397 264.262 371.417C203.122 380.577 72.3623 376.957 60.6823 364.817C68.1623 359.737 101.642 341.317 104.682 339.737C128.394 351.203 154.765 356.039 181.002 353.737C189.602 353.997 230.602 353.997 242.602 341.437ZM270.302 305.997C259.53 318.377 246.472 328.563 231.842 335.997C170.882 367.357 97.4023 346.277 66.2823 304.357C53.1623 286.657 46.7023 264.957 45.5423 243.117C45.1573 232.287 45.8607 221.447 47.6423 210.757C48.6623 217.397 59.9023 220.957 64.9623 222.617C123.622 241.737 276.362 236.497 294.162 213.537C294.162 213.537 294.162 213.537 294.162 213.677C299.642 248.277 292.822 279.597 270.302 305.997ZM273.342 305.877C275.842 302.831 278.184 299.661 280.362 296.377C305.342 297.097 328.742 283.037 342.122 261.777C348.662 251.377 354.242 237.317 350.862 224.917C349.896 221.721 348.202 218.793 345.91 216.363C343.62 213.933 340.796 212.069 337.662 210.917C323.222 204.917 308.102 215.117 298.442 227.357C298.194 222.453 297.686 217.567 296.922 212.717C314.502 196.717 332.922 195.977 346.922 204.717C388.082 230.317 342.122 315.097 273.342 305.777V305.877Z" fill="#0D128A"/>
<path d="M342.862 364.297C342.862 364.297 342.922 364.317 342.862 364.297V364.297Z" fill="#6CECC4"/>
<path d="M241.522 174.517C242.186 171.624 243.152 168.809 244.402 166.117C240.042 168.297 233.602 175.237 230.262 179.257C228.842 180.977 227.602 182.977 226.102 184.597C224.102 186.837 219.162 186.837 216.262 187.017C206.352 187.408 196.516 185.136 187.782 180.437C186.662 182.137 168.002 210.437 159.782 222.957C160.927 225.293 161.871 227.721 162.602 230.217C169.942 231.277 174.042 231.117 192.322 230.937C201.702 230.905 211.064 230.135 220.322 228.637L242.082 192.937C239.582 187.377 240.042 180.697 241.522 174.517Z" fill="#FF3E74"/>
<path d="M93.1823 265.997C93.7491 268.489 94.7149 270.873 96.0423 273.057C96.5223 273.777 95.8423 275.257 95.2623 275.717C92.5293 277.897 89.9869 280.305 87.6623 282.917C86.4623 284.297 80.4623 291.777 85.6623 291.637C90.0223 291.537 95.0623 287.137 98.3223 284.657C101.724 282.163 104.927 279.407 107.902 276.417C106.206 272.327 104.822 268.115 103.762 263.817L93.1823 265.997Z" fill="#FF3E74"/>
<path d="M14.7623 251.997C15.0767 254.461 15.7857 256.859 16.8623 259.097C17.3223 259.997 16.3223 261.617 15.7423 262.017C12.8029 263.929 10.0327 266.091 7.46228 268.477C6.06228 269.777 -0.437738 276.477 5.04228 276.637C9.54228 276.637 14.7023 273.057 18.3623 270.797C21.9483 268.697 25.3713 266.331 28.6023 263.717C27.3437 259.521 26.4011 255.235 25.7823 250.897L14.7623 251.997Z" fill="#FF3E74"/>
<path d="M266.602 242.397L280.062 249.937L286.722 241.077L273.982 232.917C271.302 235.997 268.782 239.097 266.602 242.397Z" fill="#FF3E74"/>
<path d="M178.142 190.677C183.502 182.997 181.502 185.957 186.582 178.257C186.682 177.237 186.802 176.257 186.902 175.217C184.322 174.897 181.762 174.417 179.222 173.897C144.422 166.597 120.082 145.997 116.602 110.717C111.962 114.537 105.462 117.557 99.2623 116.717C100.384 128.835 104.204 140.548 110.442 150.997C131.962 186.197 176.882 189.597 178.142 190.677Z" fill="#FF3E74"/>
<path d="M116.402 107.817C116.102 103.582 116.102 99.3315 116.402 95.0969C111.462 99.2369 103.422 102.617 99.9623 97.0969C99.7453 96.6013 99.5777 96.0855 99.4623 95.5569C98.7353 101.314 98.5545 107.126 98.9223 112.917C107.942 115.297 115.842 108.117 116.402 107.817Z" fill="#FF3E74"/>
<path d="M304.602 186.517C294.762 165.977 270.062 161.757 247.642 164.517C245.422 168.33 243.996 172.554 243.454 176.933C242.91 181.313 243.26 185.757 244.482 189.997C252.582 181.857 264.482 177.097 275.222 181.857C282.842 185.257 290.062 192.677 290.642 201.337C291.322 211.637 283.122 221.917 276.242 230.157L288.862 238.157C291.862 234.157 294.862 230.257 297.902 226.337C302.422 220.497 306.582 215.697 307.782 208.217C308.93 200.829 307.822 193.265 304.602 186.517Z" fill="#FF3E74"/>
<path d="M186.602 178.677C186.602 178.537 186.602 178.397 186.602 178.257C181.262 186.337 181.202 186.297 186.602 178.677Z" fill="#FFDE26"/>
<path d="M133.822 55.8169C133.453 55.5083 133.009 55.3031 132.534 55.2223C132.06 55.1415 131.573 55.1879 131.122 55.3569C129.981 55.8299 129.075 56.7361 128.602 57.8769L128.002 57.6969C128.238 57.2375 128.426 56.7549 128.562 56.2569C128.767 55.6943 128.836 55.0911 128.762 54.4969C128.522 53.0169 126.762 52.7769 125.502 53.3569C123.902 54.1769 124.602 56.2769 124.962 57.6169C124.19 57.8409 123.497 58.2775 122.962 58.8769C125.158 58.9863 127.339 59.2873 129.482 59.7769C129.482 59.7769 129.622 59.7769 129.702 59.7769C130.257 59.8351 130.806 59.9423 131.342 60.0969C134.062 59.6769 135.342 57.1769 133.822 55.8169Z" fill="#FFDE26"/>
<path d="M129.942 60.657C128.602 63.997 125.342 63.417 124.602 60.797C124.416 61.271 124.105 61.6856 123.702 61.997C122.454 61.4168 121.062 61.2218 119.702 61.437C119.702 61.697 119.702 61.877 119.702 61.877L119.102 62.097C119.025 62.0582 118.957 62.0038 118.902 61.937C117.502 63.497 120.002 65.217 122.902 65.017L122.742 66.557C124.351 67.4662 126.24 67.7442 128.042 67.337C128.857 66.143 129.922 65.14 131.162 64.397C131.44 63.189 131.37 61.9274 130.962 60.757L129.942 60.657ZM127.162 63.877L126.842 64.237C127.102 64.857 127.402 66.237 126.382 66.237C125.805 66.1954 125.267 65.9298 124.882 65.497C124.559 65.5972 124.22 65.6378 123.882 65.617C123.482 65.617 123.882 64.737 124.202 64.777C124.716 64.7542 125.218 64.6166 125.671 64.3744C126.125 64.1322 126.518 63.7914 126.822 63.377C127.222 62.957 127.482 63.537 127.162 63.877Z" fill="#FFDE26"/>
<path d="M115.442 204.857C92.5623 211.057 88.6423 236.977 91.4423 257.317L102.042 255.117C100.662 245.557 100.702 235.117 105.382 226.477C108.215 221.109 112.99 217.023 118.731 215.053C124.473 213.083 130.75 213.377 136.282 215.877C141.093 218.253 145.114 221.969 147.862 226.577C148.222 227.157 149.642 230.357 149.642 230.357C150.062 230.617 149.042 230.357 159.642 230.837C152.762 211.737 136.482 199.617 115.442 204.857Z" fill="#FFDE26"/>
<path d="M43.1623 193.457C19.6623 197.457 13.1623 222.537 13.9023 243.197L24.8023 241.997C24.3423 231.997 25.5223 221.277 31.4623 213.077C41.0623 199.757 61.4623 199.077 71.4623 215.357C72.6735 217.079 73.6049 218.983 74.2223 220.997C74.4623 222.237 74.0223 221.897 75.3423 222.217C78.9823 223.117 82.7423 223.677 86.4823 224.217C79.7623 203.677 64.8423 190.257 43.1623 193.457Z" fill="#FFDE26"/>
<path d="M266.942 245.497C266.754 245.865 266.48 246.181 266.142 246.417C264.456 247.803 262.908 249.351 261.522 251.037C258.544 254.653 256.918 259.193 256.922 263.877C256.728 265.181 256.816 266.511 257.182 267.777C258.008 265.635 258.676 263.437 259.182 261.197C259.422 260.237 261.802 257.897 261.802 260.137C261.802 261.477 261.802 262.837 261.802 264.137C261.722 265.741 261.898 267.347 262.322 268.897C262.882 267.777 264.222 263.597 264.722 261.917C265.022 260.937 267.222 259.377 267.222 261.297C267.146 263.571 267.416 265.843 268.022 268.037C268.402 269.137 268.842 270.537 269.822 269.677C270.802 268.817 270.742 266.257 270.902 265.237C270.908 263.369 271.282 261.521 272.002 259.797C273.382 257.537 276.002 255.337 276.262 252.537C276.306 252.213 276.43 251.903 276.622 251.637L266.942 245.497Z" fill="#FFDE26"/>
<path d="M204.082 116.237C199.57 117.205 195.416 119.407 192.082 122.597C208.928 123.584 225.658 126.026 242.082 129.897C242.488 129.99 242.846 130.233 243.082 130.577C243.232 130.412 243.414 130.281 243.616 130.191C243.82 130.102 244.04 130.056 244.262 130.057C248.706 130.286 253.15 129.605 257.322 128.057C266.222 124.757 275.442 114.857 268.402 105.357C261.362 95.857 248.402 98.617 240.402 104.837C236.358 107.855 233.218 111.922 231.322 116.597C231.122 117.137 230.302 118.397 229.522 118.177L225.222 116.957C223.222 116.377 225.342 114.737 225.662 113.437C227.6 108.875 229.056 104.123 230.002 99.257C231.082 90.957 226.562 84.957 218.182 84.317C211.282 83.777 203.622 86.737 202.602 94.317C201.742 100.757 204.002 107.397 205.662 113.537C205.746 114.1 205.634 114.674 205.346 115.165C205.06 115.656 204.614 116.034 204.082 116.237Z" fill="#FFDE26"/>
<path d="M242.802 134.837C240.282 142.577 235.022 151.017 227.402 153.777C216.462 157.777 206.362 150.617 202.122 140.877C201.244 142.357 200.22 143.744 199.062 145.017L200.702 145.797C202.042 146.437 200.262 149.637 198.862 148.977C190.582 144.977 176.242 140.377 167.042 142.977C163.702 143.917 160.102 146.297 159.442 149.977C158.002 157.877 172.702 167.617 192.442 165.017C194.322 164.777 193.182 168.157 191.802 168.317L190.102 168.517C190.102 168.517 189.262 176.697 189.222 176.997C197.874 181.748 207.66 184.038 217.522 183.617C219.89 183.576 222.246 183.26 224.542 182.677C225.364 181.871 226.088 180.971 226.702 179.997C231.642 173.657 239.062 165.397 246.342 161.877C246.342 161.457 246.522 161.017 246.602 160.597C247.918 151.87 246.774 142.95 243.302 134.837H242.802ZM219.322 175.477C214.662 180.437 205.162 175.197 201.802 169.857C200.514 170.017 199.21 170.017 197.922 169.857C196.302 169.677 197.782 166.337 199.202 166.477C206.522 167.257 213.882 161.717 218.742 156.177C220.362 154.317 221.342 156.657 220.102 158.177L219.182 159.197C221.082 162.417 222.962 171.597 219.322 175.477Z" fill="#FFDE26"/>
<path d="M102.402 94.517C102.627 94.8694 102.904 95.1862 103.222 95.457C106.822 98.657 114.582 94.277 117.382 90.937C118.222 89.917 118.182 89.797 116.802 89.697C115.642 89.7148 114.494 89.9244 113.402 90.317C111.883 90.7456 110.393 91.2734 108.942 91.897C106.942 92.677 107.922 89.497 108.942 88.837C111.354 87.5202 113.498 85.7632 115.262 83.657C116.742 81.517 113.682 81.657 112.242 82.157C111.064 82.6202 109.943 83.2174 108.902 83.937C107.442 84.857 107.782 82.577 108.342 81.497C108.41 81.3522 108.497 81.2176 108.602 81.097C109.705 79.9814 110.747 78.8062 111.722 77.577C112.29 76.888 112.799 76.152 113.242 75.377C112.882 74.857 104.722 78.277 102.162 82.917C100.602 85.617 101.482 91.617 102.402 94.517Z" fill="#FFDE26"/>
<path d="M188.062 125.797L197.782 143.137C198.324 142.56 198.826 141.945 199.282 141.297L190.602 125.997L188.062 125.797Z" fill="#FF3E74"/>
<path d="M182.602 125.537C176.602 125.317 177.982 125.397 176.802 125.297L185.122 140.137C187.422 140.677 189.682 141.357 191.902 142.137C185.502 130.717 182.442 125.277 182.602 125.537Z" fill="#FF3E74"/>
<path d="M228.962 130.697L226.142 130.177L234.702 145.437C235.236 144.806 235.724 144.138 236.162 143.437L228.962 130.697Z" fill="#FF3E74"/>
<path d="M214.062 128.257L226.722 150.837C228.316 150.352 229.82 149.616 231.182 148.657L220.262 129.177C218.202 128.857 216.142 128.537 214.062 128.257Z" fill="#FF3E74"/>
<path d="M122.742 58.877H122.362L123.962 61.717C124.034 61.6342 124.101 61.5474 124.162 61.457L122.742 58.877Z" fill="#FF3E74"/>
<path d="M121.582 58.8369H120.782L122.322 61.6169C122.655 61.6963 122.982 61.7965 123.302 61.9169L121.582 58.8369Z" fill="#FF3E74"/>
<path d="M128.142 59.537H127.742L129.182 61.997L129.382 61.737L128.142 59.537Z" fill="#FF3E74"/>
<path d="M126.042 59.1969L128.042 62.8369C128.257 62.7521 128.459 62.6375 128.642 62.4969L126.862 59.3169L126.042 59.1969Z" fill="#FF3E74"/>
<path d="M182.162 58.4569L160.482 45.5969C160.377 45.5311 160.289 45.4425 160.223 45.3375C160.157 45.2325 160.116 45.1141 160.102 44.9909C160.089 44.8677 160.103 44.7429 160.145 44.6263C160.187 44.5095 160.254 44.4037 160.342 44.3169L180.702 24.6169C180.826 24.4879 180.904 24.3221 180.924 24.1449C180.945 23.9675 180.907 23.7883 180.816 23.6345C180.726 23.4807 180.588 23.3605 180.423 23.2923C180.258 23.2243 180.075 23.2117 179.902 23.2569L158.482 29.7569C158.349 29.7959 158.208 29.8007 158.073 29.7705C157.938 29.7403 157.812 29.6761 157.708 29.5843C157.604 29.4923 157.525 29.3755 157.479 29.2449C157.432 29.1141 157.42 28.9737 157.442 28.8369L162.202 0.956944C162.233 0.778984 162.203 0.596064 162.119 0.436524C162.034 0.277004 161.9 0.149763 161.736 0.0745632C161.572 -0.000636801 161.387 -0.0195966 161.211 0.0206033C161.035 0.0608033 160.878 0.157944 160.762 0.296944L141.282 23.9969C141.122 24.1533 140.907 24.2407 140.682 24.2407C140.458 24.2407 140.243 24.1533 140.082 23.9969L120.602 5.99694C120.479 5.87742 120.321 5.8006 120.151 5.77782C119.981 5.75504 119.808 5.7875 119.658 5.87042C119.508 5.95334 119.389 6.08232 119.317 6.23834C119.246 6.39436 119.227 6.56916 119.262 6.73694L124.222 33.6769L143.442 31.4369C144.242 31.3369 144.602 32.0369 144.422 32.7569C143.822 34.7769 138.602 56.3969 136.602 65.0969L153.462 77.9969C153.604 78.1025 153.776 78.1597 153.953 78.1597C154.129 78.1597 154.301 78.1025 154.443 77.9969C154.585 77.8913 154.688 77.7427 154.739 77.5733C154.789 77.4039 154.783 77.2227 154.722 77.0569L148.962 61.0569C148.922 60.9323 148.911 60.7999 148.931 60.6703C148.95 60.5409 149 60.4177 149.076 60.3109C149.152 60.2039 149.251 60.1163 149.367 60.0547C149.483 59.9933 149.611 59.9599 149.742 59.9569H181.742C181.915 59.9491 182.08 59.8871 182.216 59.7797C182.351 59.6723 182.449 59.5251 182.495 59.3589C182.542 59.1927 182.534 59.0159 182.475 58.8541C182.415 58.6921 182.306 58.5531 182.162 58.4569Z" fill="#FF3E74"/>
<path d="M130.102 38.5969C129.442 38.3969 128.682 39.0169 128.382 39.9969C128.082 40.9769 128.382 41.9969 129.022 42.1169C129.662 42.2369 130.442 41.6769 130.722 40.7169C131.002 39.7569 130.742 38.7969 130.102 38.5969Z" fill="#FF3E74"/>
<path d="M90.0423 225.417C86.9423 211.677 77.5423 197.417 64.1423 192.057C57.6501 189.609 50.6267 188.919 43.7823 190.057C17.9423 194.377 10.2023 222.957 11.2823 245.617C11.4295 250.579 12.2849 255.497 13.8223 260.217C10.6841 262.367 7.7577 264.813 5.0823 267.517C2.9423 269.737 -2.8177 276.697 1.6623 279.517C5.4423 281.897 12.6223 277.197 15.6623 275.517C20.9621 272.619 25.9255 269.145 30.4623 265.157C30.8089 264.875 31.0759 264.505 31.2371 264.089C31.3985 263.671 31.4485 263.219 31.3823 262.777C29.8867 257.951 28.8095 253.007 28.1623 247.997C25.8023 230.937 28.3023 210.557 45.0623 206.837C57.8023 204.037 68.3623 213.357 72.3223 224.837C72.3589 224.989 72.4391 225.125 72.5527 225.233C72.6665 225.339 72.8087 225.411 72.9623 225.437L88.1423 228.197C89.3623 228.417 90.2623 226.377 90.0423 225.417ZM28.6023 263.717C25.3989 266.347 22.0027 268.735 18.4423 270.857C14.7823 273.117 9.6223 276.857 5.1223 276.697C-0.357704 276.697 6.1423 269.837 7.5423 268.537C10.0841 266.127 12.8275 263.939 15.7423 261.997C16.3623 261.597 17.3223 259.997 16.8623 259.077C15.7879 256.845 15.0787 254.455 14.7623 251.997L25.7023 250.837C26.3443 255.197 27.3137 259.503 28.6023 263.717ZM14.1823 246.417L25.1023 245.277C25.1023 246.077 25.2623 246.897 25.3623 247.697L14.4223 248.857C14.2623 247.997 14.1623 247.237 14.1023 246.417H14.1823ZM75.5023 222.277C74.1823 221.957 74.6223 222.277 74.3823 221.057C73.7649 219.043 72.8335 217.139 71.6223 215.417C61.7423 199.237 41.2423 199.677 31.6223 213.137C25.6223 221.337 24.5023 232.137 24.9623 242.057L14.0623 243.197C13.3023 222.537 19.8223 197.377 43.3223 193.457C65.0023 190.257 79.9223 203.677 86.7223 224.337C82.8423 223.737 79.0623 223.177 75.4223 222.277H75.5023Z" fill="#0D128A"/>
<path d="M208.382 190.317C207.894 190.313 207.418 190.453 207.01 190.721C206.602 190.989 206.284 191.373 206.096 191.821C205.906 192.271 205.854 192.767 205.946 193.245C206.04 193.723 206.272 194.163 206.616 194.509C206.958 194.855 207.396 195.091 207.874 195.189C208.352 195.285 208.848 195.237 209.298 195.051C209.75 194.867 210.134 194.551 210.406 194.145C210.678 193.741 210.822 193.265 210.822 192.777C210.822 192.129 210.566 191.505 210.108 191.045C209.652 190.583 209.032 190.323 208.382 190.317Z" fill="#0D128A"/>
<path d="M203.162 202.297C202.674 202.297 202.198 202.441 201.794 202.713C201.388 202.985 201.074 203.369 200.888 203.821C200.702 204.271 200.654 204.767 200.75 205.245C200.848 205.723 201.084 206.161 201.43 206.503C201.776 206.847 202.216 207.079 202.694 207.173C203.172 207.265 203.668 207.213 204.118 207.023C204.566 206.835 204.95 206.517 205.218 206.109C205.486 205.701 205.626 205.225 205.622 204.737C205.622 204.415 205.558 204.095 205.434 203.799C205.31 203.501 205.128 203.231 204.9 203.005C204.672 202.777 204.4 202.599 204.102 202.477C203.804 202.355 203.484 202.295 203.162 202.297Z" fill="#0D128A"/>
<path d="M300.302 174.257C290.862 164.417 277.162 160.717 263.902 160.377C259.016 160.197 254.122 160.458 249.282 161.157C250.472 152.625 249.678 143.932 246.962 135.757L248.962 136.277C252.482 137.237 262.702 141.177 256.782 145.257C255.662 146.037 255.082 149.497 256.782 148.297C257.87 147.609 258.81 146.712 259.548 145.658C260.286 144.604 260.808 143.414 261.082 142.157C261.942 136.817 255.862 134.477 250.682 132.977C259.882 131.317 268.942 125.857 272.342 117.177C278.602 101.177 257.742 86.3969 238.342 103.177C234.69 106.272 231.72 110.093 229.622 114.397L227.782 113.857C231.482 104.517 236.242 91.5969 228.862 84.6769C224.522 80.6769 217.742 80.0369 212.182 81.4569C209.208 82.1593 206.498 83.6985 204.372 85.8923C202.246 88.0861 200.792 90.8429 200.182 93.8369C198.882 100.357 200.742 107.117 202.502 113.457C197.27 115.114 192.602 118.196 189.022 122.357C186.462 122.237 183.902 122.117 181.342 122.037C178.002 121.917 174.562 121.157 173.002 124.837C171.349 129.35 170.894 134.215 171.682 138.957C169.326 139.157 167.024 139.773 164.882 140.777C165.062 137.097 164.682 129.717 158.682 130.177C150.942 130.777 157.062 142.337 160.242 144.177C149.802 155.437 164.042 169.997 187.562 168.757L187.262 171.757C179.658 170.735 172.204 168.801 165.062 165.997C148.602 159.797 133.662 148.897 125.602 132.857C116.202 114.117 119.302 94.1169 119.202 92.3569C119.761 91.7905 120.178 91.1009 120.422 90.3435C120.665 89.5863 120.727 88.7825 120.602 87.9969L130.482 85.5169C130.903 85.3527 131.273 85.0821 131.557 84.7313C131.841 84.3807 132.029 83.9621 132.102 83.5169C133.582 77.3569 143.842 34.7169 144.362 32.5969C144.542 31.8769 144.182 31.1769 143.382 31.2769L116.982 34.3969C116.142 34.4969 115.562 35.6969 115.382 36.3969L105.782 75.9969C103.913 77.4571 102.245 79.1585 100.822 81.0569C98.8223 83.9369 98.4223 88.4569 98.8223 92.4569C98.3925 92.6091 98.0127 92.8757 97.7235 93.2283C97.4345 93.5809 97.2473 94.0057 97.1823 94.4569C95.5597 104.243 95.6341 114.236 97.4023 123.997C98.8969 134.173 102.389 143.954 107.679 152.775C112.968 161.597 119.95 169.284 128.222 175.397C142.222 185.637 159.302 191.057 176.222 193.877C170.329 202.863 164.422 211.831 158.502 220.777C153.582 211.957 145.862 204.437 136.342 201.557C129.675 199.707 122.63 199.707 115.962 201.557C90.4623 208.457 85.5623 237.557 88.9023 260.237C89.5413 265.127 90.8889 269.897 92.9023 274.397C89.8695 276.915 87.1079 279.745 84.6623 282.837C82.8223 285.217 77.9423 292.677 82.8223 294.697C87.0023 296.437 93.4823 291.137 96.5223 288.977C101.517 285.553 106.118 281.589 110.242 277.157C110.488 276.891 110.669 276.573 110.773 276.227C110.877 275.879 110.901 275.513 110.842 275.157C108.099 268.799 106.086 262.149 104.842 255.337C102.522 241.757 103.202 222.737 119.002 217.957C131.242 214.257 142.442 222.357 147.442 233.197C147.562 233.477 147.722 233.757 148.082 233.777C168.482 234.737 179.962 234.397 183.622 234.397C194.242 234.397 207.622 234.397 219.142 232.077C221.682 231.577 222.322 229.357 223.622 227.237C247.782 187.617 244.302 193.777 244.562 193.057C251.002 185.917 261.562 181.177 271.022 184.177C278.662 186.597 286.782 193.757 287.762 202.177C289.342 215.457 272.982 228.297 263.382 242.997C263.042 243.517 262.722 244.737 263.382 245.137L263.702 245.317C260.256 248.221 257.584 251.931 255.922 256.119C254.262 260.307 253.664 264.841 254.182 269.317C254.622 272.577 256.742 273.317 258.442 270.317C258.662 269.897 258.862 269.477 259.062 269.057C259.302 271.537 259.862 273.677 261.222 273.697C263.222 273.697 264.262 270.137 264.922 268.477C265.462 271.617 266.642 274.577 269.362 273.437C273.122 271.857 273.622 265.117 273.862 261.177C275.876 258.945 277.452 256.353 278.502 253.537L278.722 253.657C279.262 253.977 280.002 253.457 280.322 253.037C287.422 243.537 294.522 234.057 301.862 224.737C304.636 221.557 306.878 217.951 308.502 214.057C310.89 207.305 311.388 200.029 309.942 193.015C308.496 186.001 305.164 179.515 300.302 174.257ZM204.082 116.257C204.624 116.052 205.08 115.664 205.368 115.161C205.656 114.657 205.76 114.069 205.662 113.497C204.002 107.357 201.662 100.717 202.602 94.2769C203.622 86.6769 211.282 83.7169 218.182 84.2769C226.562 84.9169 231.082 90.9169 230.002 99.2169C229.07 104.086 227.614 108.84 225.662 113.397C225.462 114.177 223.422 116.397 225.222 116.917L229.522 118.137C230.302 118.357 231.122 117.117 231.322 116.557C233.226 111.886 236.364 107.821 240.402 104.797C248.402 98.5769 261.482 95.9969 268.402 105.317C275.322 114.637 266.222 124.717 257.322 128.017C253.15 129.565 248.706 130.246 244.262 130.017C244.04 130.016 243.82 130.062 243.616 130.151C243.414 130.241 243.232 130.372 243.082 130.537C242.846 130.193 242.49 129.95 242.082 129.857C225.658 125.986 208.928 123.544 192.082 122.557C195.42 119.381 199.574 117.194 204.082 116.237V116.257ZM226.082 130.257L228.902 130.777L236.102 143.617C235.652 144.31 235.164 144.977 234.642 145.617L226.082 130.257ZM231.122 148.737C229.76 149.696 228.256 150.432 226.662 150.917L214.002 128.337C216.002 128.617 218.142 128.917 220.202 129.257L231.122 148.737ZM190.602 125.997L199.222 141.357C198.766 142.005 198.264 142.62 197.722 143.197L188.002 125.857L190.602 125.997ZM182.602 125.597L191.902 142.177C189.682 141.417 187.422 140.737 185.122 140.177L176.802 125.337C177.962 125.397 176.602 125.317 182.602 125.537V125.597ZM159.442 149.997C160.102 146.317 163.702 143.997 167.042 142.997C176.242 140.357 190.462 144.997 198.862 148.997C200.262 149.657 202.042 146.457 200.702 145.817L199.062 145.037C200.22 143.764 201.244 142.377 202.122 140.897C206.362 150.637 216.462 157.757 227.402 153.797C234.982 151.057 240.262 142.657 242.802 134.857H243.302C246.776 142.991 247.918 151.931 246.602 160.677C246.602 161.097 246.422 161.537 246.342 161.957C240.948 164.91 236.152 168.844 232.202 173.557C226.002 180.337 225.362 182.377 224.542 182.717C222.246 183.3 219.89 183.615 217.522 183.657C207.66 184.078 197.874 181.788 189.222 177.037C189.222 176.737 190.102 168.557 190.102 168.557L191.802 168.357C193.182 168.197 194.322 164.817 192.442 165.057C172.802 167.637 158.002 157.997 159.442 149.997ZM117.442 37.5569L141.402 34.7969C139.242 43.7969 130.282 80.9969 129.902 82.5569L116.602 85.8769C117.502 84.8309 118.134 83.5815 118.442 82.2369C119.202 78.5169 116.442 78.2369 113.662 78.8569C114.175 78.1677 114.643 77.4461 115.062 76.6969C116.402 74.2569 115.982 72.2369 113.862 72.1369L121.982 39.7169C122.562 37.3969 119.762 38.8769 119.402 40.3769C116.736 51.1501 114.069 61.9235 111.402 72.6969C110.431 73.0427 109.494 73.4779 108.602 73.9969C111.602 61.8501 114.576 49.7101 117.522 37.5769L117.442 37.5569ZM102.202 82.9169C104.822 78.2169 112.922 74.9169 113.282 75.3769C112.839 76.1517 112.33 76.8877 111.762 77.5769C110.774 78.8071 109.719 79.9823 108.602 81.0969C107.862 81.8369 107.262 84.9769 108.902 83.9369C109.935 83.2029 111.057 82.6047 112.242 82.1569C113.682 81.6369 116.742 81.5169 115.262 83.6569C113.495 85.7603 111.352 87.5169 108.942 88.8369C108.293 89.3929 107.873 90.1693 107.762 91.0169C107.662 91.8569 108.062 92.2169 108.902 91.8969C110.354 91.2747 111.843 90.7469 113.362 90.3169C114.454 89.9241 115.603 89.7147 116.762 89.6969C118.142 89.6969 118.182 89.9169 117.342 90.9369C114.562 94.2569 106.802 98.6769 103.182 95.4569C102.864 95.1861 102.587 94.8693 102.362 94.5169C101.502 91.6169 100.602 85.6169 102.202 82.9169ZM99.5423 95.6369C99.6671 96.1629 99.8343 96.6779 100.042 97.1769C103.502 102.617 111.542 99.1769 116.482 95.1769C116.182 99.4115 116.182 103.662 116.482 107.897C116.042 108.137 108.082 115.377 99.0823 113.077C98.6829 107.262 98.8369 101.423 99.5423 95.6369ZM99.3023 116.677C105.502 117.557 112.002 114.537 116.642 110.677C118.242 127.037 124.642 142.357 137.422 153.897C149.042 164.377 164.042 170.677 179.222 173.897C181.762 174.417 184.322 174.897 186.902 175.217C186.802 176.217 186.562 178.537 186.542 178.677C183.844 182.785 180.898 186.725 177.722 190.477C134.602 183.357 103.642 159.797 99.3023 116.677ZM92.4623 262.897C92.2823 262.057 92.1223 261.217 91.9623 260.377L102.602 258.197C102.762 259.037 102.922 259.877 103.102 260.697L92.4623 262.897ZM107.942 276.337C104.967 279.327 101.764 282.083 98.3623 284.577C95.1023 287.057 90.0623 291.457 85.7023 291.557C80.4623 291.697 86.4623 284.217 87.7023 282.837C90.0269 280.225 92.5693 277.817 95.3023 275.637C95.8623 275.197 96.5823 273.637 96.0823 272.977C94.7487 270.821 93.7697 268.463 93.1823 265.997L103.802 263.817C104.866 268.089 106.25 272.273 107.942 276.337ZM149.662 230.337C149.662 230.337 148.242 227.137 147.882 226.557C136.802 208.557 114.142 210.337 105.402 226.457C100.722 235.117 100.682 245.537 102.062 255.097L91.4623 257.297C88.6423 236.957 92.5623 211.037 115.462 204.837C136.462 199.597 152.842 211.697 159.582 230.837C149.282 230.337 150.022 230.577 149.662 230.357V230.337ZM220.302 228.617C211.044 230.115 201.682 230.885 192.302 230.917C172.702 231.097 169.422 231.177 162.582 230.197C161.831 227.699 160.868 225.271 159.702 222.937C167.942 210.457 186.602 182.117 187.702 180.417C191.958 182.676 196.48 184.396 201.162 185.537C197.282 192.457 193.416 199.383 189.562 206.317C188.462 208.317 190.362 209.397 191.562 207.417L203.562 186.037C207.76 186.925 212.058 187.248 216.342 186.997C219.242 186.817 224.082 186.817 226.182 184.577C227.682 182.957 228.922 180.937 230.342 179.237C232.872 176.102 235.634 173.161 238.602 170.437C240.364 168.788 242.302 167.339 244.382 166.117C243.112 168.8 242.146 171.618 241.502 174.517C239.922 180.677 239.502 187.377 242.042 192.937L220.302 228.617ZM276.402 252.617C276.142 255.417 273.522 257.617 272.142 259.877C271.424 261.601 271.05 263.449 271.042 265.317C270.882 266.337 270.782 269.037 269.962 269.757C269.142 270.477 268.542 269.217 268.162 268.117C267.556 265.923 267.286 263.651 267.362 261.377C267.362 259.377 265.162 261.017 264.862 261.997C264.442 263.457 262.982 267.997 262.462 268.977C262.026 267.431 261.85 265.821 261.942 264.217C261.942 262.857 261.942 261.497 261.942 260.217C261.942 257.977 259.562 260.317 259.322 261.277C258.816 263.515 258.148 265.715 257.322 267.857C256.956 266.591 256.866 265.261 257.062 263.957C257.064 259.273 258.69 254.735 261.662 251.117C263.048 249.431 264.596 247.883 266.282 246.497C266.616 246.255 266.888 245.941 267.082 245.577L276.902 251.777C276.672 252.005 276.5 252.287 276.402 252.597V252.617ZM279.962 249.957L266.602 242.397C268.882 239.097 271.402 235.997 273.982 232.917L286.722 241.077L279.962 249.957ZM307.782 208.217C306.582 215.697 302.422 220.497 297.902 226.337C294.862 230.337 291.902 234.197 288.862 238.157L276.242 230.157C283.122 221.897 291.322 211.577 290.642 201.337C290.062 192.677 282.842 185.337 275.222 181.857C264.602 176.997 252.602 181.757 244.482 189.997C243.292 185.786 242.96 181.379 243.502 177.037C244.044 172.695 245.452 168.506 247.642 164.717C270.202 161.997 294.702 165.957 304.602 186.717C307.778 193.401 308.886 200.881 307.782 208.197V208.217Z" fill="#0D128A"/>
<path d="M197.922 169.997C199.21 170.157 200.514 170.157 201.802 169.997C205.262 175.457 214.702 180.537 219.322 175.617C223.022 171.617 221.002 162.397 219.182 159.317L220.102 158.297C221.342 156.877 220.362 154.537 218.742 156.297C213.882 161.837 206.542 167.377 199.202 166.597C197.782 166.417 196.302 169.757 197.922 169.997ZM216.722 161.717C218.262 164.317 220.122 170.837 218.302 173.217L212.462 165.217C213.952 164.117 215.376 162.928 216.722 161.657V161.717ZM210.282 166.697L215.662 173.997C211.762 173.636 208.14 171.832 205.502 168.937C207.168 168.33 208.768 167.559 210.282 166.637V166.697Z" fill="#0D128A"/>
<path d="M122.362 58.8569H121.582L123.302 61.8969L123.622 62.0169C123.745 61.9285 123.859 61.8279 123.962 61.7169L122.362 58.8569Z" fill="#0D128A"/>
<path d="M120.782 58.797C120.721 58.8094 120.664 58.8382 120.618 58.8806C120.573 58.9228 120.539 58.977 120.522 59.037C120.282 59.7712 120.282 60.5628 120.522 61.297C121.152 61.3006 121.779 61.3948 122.382 61.577L120.782 58.797Z" fill="#0D128A"/>
<path d="M122.742 58.877L124.162 61.437C124.336 61.2434 124.484 61.0282 124.602 60.797C124.694 61.1686 124.861 61.5174 125.093 61.8218C125.324 62.1264 125.616 62.3802 125.95 62.5676C126.283 62.755 126.652 62.872 127.032 62.9116C127.413 62.951 127.797 62.912 128.162 62.797L126.162 59.157C124.282 58.957 122.942 58.897 122.742 58.877Z" fill="#0D128A"/>
<path d="M126.902 59.3169L128.602 62.4969C128.783 62.3525 128.951 62.1919 129.102 62.0169L127.662 59.4569L126.902 59.3169Z" fill="#0D128A"/>
<path d="M132.082 60.3569C131.261 60.0067 130.391 59.7841 129.502 59.6969C129.502 59.6969 129.362 59.6969 129.282 59.6969C128.902 59.6969 128.522 59.5169 128.142 59.4569L129.382 61.6769C129.616 61.3361 129.804 60.9663 129.942 60.5769L130.742 60.7569C131.182 60.8969 132.502 61.3569 132.002 61.7169C131.842 61.8369 131.642 62.0569 131.682 62.2769C131.802 63.2769 133.722 61.1769 132.082 60.3569Z" fill="#0D128A"/>
<path d="M118.602 60.0969C117.502 60.0969 118.422 61.9169 118.862 62.0969L119.462 61.8769C119.622 61.2569 119.582 59.9969 118.602 60.0969Z" fill="#0D128A"/>
<path d="M126.822 63.3969C126.517 63.8101 126.124 64.1501 125.67 64.3923C125.217 64.6345 124.716 64.7727 124.202 64.7969C123.842 64.7969 123.482 65.5969 123.882 65.6369C124.526 65.6095 125.156 65.4369 125.724 65.1321C126.292 64.8273 126.784 64.3983 127.162 63.8769C127.482 63.5369 127.222 62.9569 126.822 63.3969Z" fill="#0D128A"/>
</svg>
