<svg width="304" height="380" viewBox="0 0 304 380" fill="none" xmlns="http://www.w3.org/2000/svg">
<path d="M209.797 91.064C205.041 89.046 200.069 87.583 194.977 86.704C194.777 86.6652 194.599 86.5536 194.477 86.391C194.355 86.2284 194.299 86.0264 194.317 85.824C194.371 80.8858 193.983 75.9528 193.157 71.084C192.897 69.824 192.557 67.524 191.457 66.664C189.137 64.864 184.057 70.664 182.617 72.124C176.617 78.004 176.297 79.764 175.297 79.484C174.617 79.484 171.837 78.164 165.297 76.944C163.035 76.578 160.749 76.3908 158.457 76.384H158.257C158.437 76.824 158.597 77.484 158.737 77.744C161.563 82.4864 165.083 86.7804 169.177 90.484C169.797 91.104 168.937 92.584 168.437 92.964C158.437 100.704 150.917 108.344 163.557 106.704C169.617 105.608 175.495 103.669 181.017 100.944C181.181 100.829 181.381 100.777 181.579 100.799C181.779 100.822 181.963 100.916 182.097 101.064C183.757 103.484 185.497 105.864 187.257 108.204C189.637 111.58 192.387 114.679 195.457 117.444C195.457 116.464 195.877 115.844 194.877 109.224C194.457 106.384 193.957 103.564 193.357 100.784C193.267 100.252 193.367 99.705 193.637 99.2376C193.907 98.7704 194.331 98.412 194.837 98.224C199.075 97.2058 203.255 95.9574 207.357 94.484C212.577 92.484 211.637 92.044 209.797 91.064Z" fill="#FFDE26"/>
<path d="M65.0572 82.764H65.1772C65.8972 81.744 64.2772 82.884 65.0572 82.764Z" fill="#6CECC4"/>
<path d="M116.897 82.884C115.425 80.0606 113.604 77.4332 111.477 75.064C106.917 69.664 105.697 69.064 105.477 68.444C105.415 68.1654 105.413 67.8766 105.472 67.5972C105.53 67.3178 105.648 67.054 105.817 66.824C107.092 63.8726 108.168 60.8392 109.037 57.744C109.537 55.984 110.757 52.724 110.117 50.884C109.737 49.784 109.177 49.944 108.117 50.264C102.997 51.744 98.117 56.264 94.117 59.584C93.757 59.864 93.037 60.204 92.717 59.584C91.2402 57.2584 89.6378 55.0152 87.917 52.864C86.697 51.304 81.777 45.364 79.917 46.104C78.697 46.584 78.997 50.224 79.037 51.304C79.62 57.4288 81.04 63.4448 83.257 69.184C83.577 70.024 82.777 71.184 82.097 71.624C79.457 73.104 76.837 74.664 74.277 76.284C71.0746 78.0494 68.0994 80.1986 65.417 82.684C66.157 82.924 65.777 83.044 68.397 83.204C73.4884 83.332 78.5822 83.0846 83.637 82.464C84.017 82.464 84.477 82.464 84.537 82.964C84.897 85.424 85.337 87.844 85.837 90.264C86.2944 93.8834 87.3416 97.4032 88.937 100.684C89.637 101.824 89.897 102.184 90.737 101.124C92.997 98.284 95.757 89.784 96.737 86.304C96.917 85.664 97.657 84.764 98.417 84.844C103.29 85.3238 108.194 85.384 113.077 85.024C117.317 84.544 117.517 84.524 116.897 82.884Z" fill="#FFDE26"/>
<path d="M64.497 170.484C63.9084 169.215 63.5804 167.841 63.5322 166.442C63.4842 165.044 63.717 163.651 64.217 162.344C64.7906 160.989 65.544 159.718 66.457 158.564C67.133 157.675 67.735 156.732 68.257 155.744C68.817 154.404 68.857 154.684 67.877 154.284C64.937 153.124 57.877 160.624 50.797 152.584C49.5948 151.126 48.2554 149.786 46.797 148.584C45.257 147.384 44.557 147.024 43.857 149.024C42.777 152.084 42.957 155.524 41.557 158.484C40.3788 160.909 38.3708 162.832 35.897 163.904C34.1414 164.565 32.4426 165.368 30.817 166.304C28.637 167.624 31.297 168.144 31.097 168.044C33.677 169.284 36.397 169.524 38.517 171.584C40.1472 173.225 41.158 175.381 41.377 177.684C41.537 179.424 39.917 184.904 41.717 185.824C44.177 187.084 48.417 180.924 49.597 179.344C50.9024 177.274 52.7678 175.617 54.977 174.564C57.5192 173.584 60.335 173.584 62.877 174.564C64.9294 175.218 67.02 175.746 69.137 176.144C67.4224 174.401 65.8694 172.507 64.497 170.484Z" fill="#FFDE26"/>
<path d="M200.717 307.124C193.817 307.124 187.117 310.304 180.917 313.124C154.077 324.944 139.857 310.404 126.477 307.544C124.259 306.94 121.903 307.088 119.777 307.964C116.857 309.364 115.897 312.544 115.517 315.544C114.937 321.13 115.558 326.776 117.337 332.104C123.577 350.524 141.997 362.924 161.337 363.344C169.487 363.402 177.561 361.782 185.059 358.586C192.557 355.388 199.315 350.684 204.917 344.764C210.457 338.764 215.057 330.404 215.137 321.984C215.231 320.046 214.925 318.108 214.239 316.292C213.553 314.476 212.501 312.82 211.149 311.426C209.799 310.034 208.175 308.932 206.381 308.192C204.585 307.452 202.659 307.088 200.717 307.124ZM205.377 331.904C202.599 337.63 198.549 342.644 193.537 346.564C172.997 362.404 133.757 359.504 122.877 333.244C120.697 327.784 119.837 319.704 124.557 315.244C130.697 309.464 139.957 315.244 147.057 318.884C153.099 321.546 159.685 322.744 166.277 322.384C175.497 321.184 181.917 317.044 186.997 315.044C191.457 312.584 200.137 311.384 205.157 316.484C209.317 320.724 207.637 327.164 205.377 331.904Z" fill="#FF3E74"/>
<path d="M222.917 240.824C203.897 229.744 137.477 227.024 105.257 237.604C102.597 238.484 92.757 241.324 94.377 245.704C95.1854 247.34 96.5056 248.666 98.137 249.484C121.537 263.484 201.717 262.524 223.717 249.904C229.177 246.804 228.357 243.904 222.917 240.824ZM216.077 244.824C215.357 249.384 208.077 250.424 204.597 251.144C181.077 255.924 131.397 255.504 111.897 250.484C109.317 249.824 103.237 248.484 104.497 244.664C105.757 240.844 112.177 239.784 115.537 239.084C137.277 234.584 184.577 234.484 206.357 239.084C208.877 239.624 215.057 240.484 216.017 243.664C216.165 243.998 216.187 244.376 216.077 244.724V244.824Z" fill="#FF3E74"/>
<path d="M169.857 40.924C169.857 49.844 184.397 51.864 184.817 42.304C184.377 32.464 169.857 33.544 169.857 40.924Z" fill="white"/>
<path d="M194.257 4.20407C193.671 4.05685 193.059 4.03909 192.467 4.15203C191.873 4.26495 191.311 4.50589 190.819 4.85803C190.329 5.21019 189.919 5.66511 189.623 6.19115C189.325 6.71719 189.145 7.30173 189.097 7.90407C188.957 13.324 198.317 15.3041 198.637 9.28407C198.597 8.06429 198.141 6.89489 197.345 5.97057C196.547 5.04627 195.457 4.42283 194.257 4.20407Z" fill="white"/>
<path d="M153.997 11.7241C153.413 11.5771 152.803 11.5587 152.211 11.6705C151.618 11.7823 151.057 12.0215 150.566 12.3715C150.076 12.7215 149.667 13.1739 149.368 13.6977C149.07 14.2213 148.888 14.8035 148.837 15.4041C148.697 20.8241 158.057 22.7841 158.377 16.7641C158.333 15.5503 157.873 14.3883 157.077 13.4713C156.279 12.5545 155.193 11.9379 153.997 11.7241Z" fill="white"/>
<path d="M149.757 48.4241C148.737 48.1921 147.678 48.1863 146.655 48.4077C145.633 48.6289 144.671 49.0715 143.838 49.7045C143.004 50.3375 142.32 51.1455 141.833 52.0715C141.345 52.9975 141.067 54.0189 141.017 55.0641C141.017 64.3441 156.157 66.3841 156.577 56.4241C156.531 54.5105 155.829 52.6709 154.587 51.2143C153.345 49.7577 151.639 48.7725 149.757 48.4241Z" fill="white"/>
<path d="M276.017 232.944C273.139 230.268 270.101 227.77 266.917 225.464C266.417 225.104 266.517 224.404 266.697 223.884C267.557 221.264 272.357 204.964 268.017 204.624C265.537 204.444 262.017 209.244 260.717 210.824C259.417 212.404 257.877 214.224 256.577 216.004C256.337 216.344 255.537 216.964 255.097 216.604C251.943 213.678 248.363 211.25 244.477 209.404C241.997 208.444 245.957 218.644 247.017 221.104C247.317 221.784 246.697 222.784 246.157 223.304C244.537 224.924 236.157 232.904 238.537 234.644C240.537 236.144 244.957 235.644 247.257 235.604C253.257 235.604 253.657 234.864 253.917 235.824C254.949 239.728 256.447 243.496 258.377 247.044C258.637 247.424 259.037 248.184 259.497 248.364C260.231 247.254 260.689 245.986 260.837 244.664C261.631 241.566 262.259 238.428 262.717 235.264C262.817 234.524 263.617 233.264 264.497 233.384C266.497 233.644 268.497 233.824 270.497 233.944C272.561 234.298 274.673 234.298 276.737 233.944C276.577 233.564 276.297 233.224 276.017 232.944Z" fill="#FFDE26"/>
<path d="M242.577 69.6241C243.519 70.1971 244.577 70.5489 245.673 70.6533C246.771 70.7577 247.877 70.6119 248.909 70.2267C249.941 69.8415 250.871 69.2273 251.631 68.4299C252.393 67.6327 252.961 66.6733 253.297 65.6241C254.159 63.4363 254.633 61.1149 254.697 58.7641C241.237 53.6841 237.017 65.9041 242.577 69.6241Z" fill="#FF3E74"/>
<path d="M215.637 58.4441C215.123 59.0861 214.741 59.8243 214.513 60.6153C214.287 61.4065 214.221 62.2349 214.317 63.0521C214.413 63.8693 214.673 64.6591 215.077 65.3753C215.483 66.0917 216.027 66.7201 216.677 67.2241C217.493 67.7429 218.407 68.0891 219.363 68.2411C220.317 68.3931 221.293 68.3477 222.231 68.1079C223.167 67.8681 224.045 67.4387 224.811 66.8463C225.575 66.2541 226.211 65.5113 226.677 64.6641C228.019 62.1281 228.745 59.3125 228.797 56.4441C224.217 54.6241 218.657 54.3841 215.637 58.4441Z" fill="#FF3E74"/>
<path d="M175.277 171.724C175.277 176.484 175.417 178.264 175.277 179.264C175.817 179.404 176.437 179.704 176.917 179.864L191.817 184.724C196.457 172.324 194.497 177.924 202.857 173.744C219.717 165.284 219.257 141.744 203.597 132.424C198.919 129.636 193.443 128.492 188.041 129.173C182.637 129.854 177.617 132.322 173.777 136.184C169.809 140.574 167.621 146.286 167.639 152.203C167.657 158.121 169.881 163.819 173.877 168.184C174.411 168.59 174.823 169.135 175.071 169.759C175.317 170.383 175.389 171.062 175.277 171.724Z" fill="white"/>
<path d="M254.217 280.764C252.497 276.364 248.737 275.024 244.217 276.764C241.601 277.868 239.171 279.374 237.017 281.224C238.617 292.984 238.137 292.684 238.357 292.504L246.357 285.904C248.077 284.484 248.157 287.364 247.017 288.284C238.337 295.484 238.897 295.044 238.557 295.204C239.023 301.032 239.191 306.88 239.057 312.724C243.697 312.266 247.969 310.002 250.957 306.424C256.337 299.704 257.337 288.644 254.217 280.764Z" fill="#FFDE26"/>
<path d="M68.1372 295.224C69.7772 303.684 74.4572 310.224 82.8772 312.264C82.7372 306.264 82.8772 300.384 83.3972 294.824L75.8372 288.564C74.7172 287.644 76.5372 284.764 77.5572 285.604L83.7372 290.724C84.0372 287.344 84.4172 283.964 84.8572 280.604C82.4414 278.612 79.6442 277.136 76.6372 276.264C66.4772 273.684 66.9372 289.064 68.1372 295.224Z" fill="#FFDE26"/>
<path d="M228.117 249.364C215.817 264.524 133.037 267.564 101.337 254.844C98.3416 253.82 95.6098 252.148 93.337 249.944C83.717 285.244 77.097 343.344 107.877 362.924C132.937 378.924 167.457 380.524 195.277 371.664C207.397 367.784 219.697 361.404 227.397 350.944C243.637 328.904 235.257 275.684 228.117 249.364ZM127.457 276.364C128.437 270.584 132.597 264.364 139.197 265.344C146.517 266.364 151.397 273.864 153.897 280.124C157.477 289.904 154.617 298.364 161.617 302.784C168.617 307.204 170.297 296.584 169.217 292.204C169.207 292.078 169.207 291.95 169.217 291.824C167.109 286.962 166.417 281.602 167.217 276.364C168.197 270.584 172.357 264.364 178.957 265.344C192.957 267.344 202.117 295.104 190.237 303.824C184.837 307.824 178.377 304.284 174.437 299.944C173.529 298.942 172.701 297.872 171.957 296.744C171.377 301.184 169.237 305.584 164.977 306.744C159.717 308.084 156.457 303.304 154.837 298.204C153.975 300.49 152.457 302.472 150.477 303.904C140.077 311.444 124.657 292.984 127.457 276.364ZM216.877 325.904C211.557 351.224 181.757 368.764 156.317 366.204C147.105 365.32 138.331 361.846 131.011 356.182C123.692 350.52 118.126 342.9 114.957 334.204C112.257 325.684 109.797 307.664 121.577 304.484C126.617 303.124 132.097 305.684 136.657 307.604C143.117 310.284 149.357 313.204 156.357 314.204C162.467 315.122 168.707 314.666 174.617 312.864C183.137 310.184 196.377 301.384 207.237 304.864C216.017 307.644 218.597 317.664 216.877 325.904Z" fill="#FFDE26"/>
<path d="M245.477 90.504V115.284L267.637 96.104L245.477 90.504Z" fill="white"/>
<path d="M49.7972 102.784L64.9772 109.764C64.2172 105.484 63.4438 101.211 62.6572 96.9441L49.7972 102.784Z" fill="white"/>
<path d="M134.497 3.50403L117.817 7.18403L127.637 16.204L134.497 3.50403Z" fill="white"/>
<path d="M89.777 152.944C96.317 159.904 102.697 167.904 104.477 177.504L109.197 177.944C107.517 159.164 90.197 140.624 73.757 131.664C55.277 121.664 31.117 122.704 16.177 138.564C9.67424 145.724 5.04324 154.381 2.69704 163.764C2.33464 164.962 2.45664 166.255 3.03704 167.364C4.09704 168.704 5.47704 167.884 6.19704 166.644C7.01604 164.698 7.68464 162.692 8.19704 160.644C9.76404 156.375 11.9036 152.338 14.557 148.644C26.397 132.344 48.297 128.804 66.297 136.164C75.2292 140.022 83.2344 145.743 89.777 152.944Z" fill="#6CECC4"/>
<path d="M294.937 125.244C290.717 129.244 293.637 132.164 292.397 144.324C290.837 157.904 286.197 168.184 273.037 171.064C271.817 174.424 268.137 180.924 257.557 181.744C258.057 181.744 258.517 181.944 258.917 181.984C265.323 182.472 271.751 181.38 277.637 178.804C296.817 170.344 302.457 145.424 300.337 126.464C299.637 123.004 297.297 123.044 294.937 125.244Z" fill="#6CECC4"/>
<path d="M120.797 135.784C117.199 131.605 115.213 126.278 115.197 120.764C116.197 111.224 121.837 101.804 128.057 94.544C129.185 93.5134 130.161 92.3284 130.957 91.024C131.708 88.9636 131.708 86.7044 130.957 84.644C130.157 82.384 128.697 81.484 126.697 83.144C123.796 85.8508 121.267 88.9312 119.177 92.304C104.557 113.904 104.397 139.044 126.357 153.324C118.837 146.384 119.637 139.224 120.797 135.784Z" fill="#FF3E74"/>
<path d="M87.0172 72.804C87.9572 74.024 89.9572 71.284 89.1372 70.224C88.5638 69.4978 88.1852 68.6372 88.0372 67.724C87.8972 66.924 86.9372 67.204 86.5172 67.564C86.1964 67.8254 85.9486 68.1654 85.7978 68.5508C85.6472 68.9364 85.5986 69.3542 85.6572 69.764C85.8508 70.8746 86.3182 71.9194 87.0172 72.804Z" fill="#0D128A"/>
<path d="M93.0572 70.064C93.7572 71.704 95.9372 69.204 95.4172 68.064C94.8972 66.924 94.5572 66.064 94.1172 65.044C93.4172 63.404 91.2372 65.904 91.7372 67.044L93.0572 70.064Z" fill="#0D128A"/>
<path d="M102.277 68.7041C101.977 67.0441 99.677 69.4841 99.897 70.7041C100.031 71.4721 100.01 72.2593 99.8344 73.0191C99.6592 73.7787 99.3337 74.4957 98.8771 75.1275C98.4203 75.7595 97.8419 76.2935 97.1755 76.6983C96.5091 77.1029 95.7682 77.3701 94.997 77.4841C92.697 77.9841 89.157 77.7241 87.617 75.7041C86.677 74.4841 84.677 77.2241 85.497 78.2841C88.197 81.8041 94.497 81.3441 97.857 79.0841C99.5198 77.9679 100.823 76.3927 101.607 74.5501C102.392 72.7073 102.625 70.6765 102.277 68.7041Z" fill="#0D128A"/>
<path d="M260.877 226.184C261.649 225.212 262.171 224.064 262.397 222.844C262.517 222.244 262.257 221.444 261.497 221.624C260.737 221.804 258.577 225.784 259.177 226.604C259.777 227.424 260.537 226.644 260.877 226.184Z" fill="#0D128A"/>
<path d="M254.877 224.964C255.677 224.964 256.297 224.104 256.557 223.484L257.577 221.144C257.797 220.604 257.837 219.564 257.077 219.484C256.317 219.404 255.657 220.324 255.397 220.944L254.377 223.284C254.157 223.904 254.117 224.864 254.877 224.964Z" fill="#0D128A"/>
<path d="M260.797 228.684C259.457 230.424 255.657 229.844 254.077 228.964C253.123 228.464 252.347 227.68 251.861 226.718C251.373 225.758 251.197 224.67 251.357 223.604C251.757 221.404 249.217 222.764 248.957 224.204C248.617 225.794 248.827 227.452 249.555 228.906C250.281 230.36 251.481 231.522 252.957 232.204C254.467 232.886 256.151 233.084 257.777 232.77C259.403 232.454 260.893 231.642 262.037 230.444C263.117 229.084 262.197 226.884 260.797 228.684Z" fill="#0D128A"/>
<path d="M205.857 153.484C205.765 153.102 205.589 152.744 205.343 152.436C205.097 152.129 204.787 151.878 204.435 151.703C204.083 151.528 203.697 151.432 203.303 151.421C202.909 151.411 202.519 151.487 202.157 151.644C199.797 152.484 198.497 155.424 197.177 157.644C195.997 157.361 194.929 156.726 194.117 155.824C196.237 153.324 198.117 149.344 195.417 147.264C191.637 144.364 189.737 151.644 190.077 154.084C190.149 154.629 190.277 155.165 190.457 155.684C188.917 156.275 187.225 156.352 185.637 155.904C185.687 155.118 185.687 154.33 185.637 153.544C185.517 150.404 183.277 143.424 178.917 146.564C174.557 149.704 177.397 156.344 183.077 158.564C182.051 162.881 180.713 167.119 179.077 171.244C178.397 173.404 180.717 173.244 181.257 171.444C182.497 167.444 184.237 163.344 185.117 159.144C187.381 159.573 189.723 159.176 191.717 158.024C192.683 159.296 194.027 160.228 195.557 160.684C192.835 165.317 191.079 170.454 190.397 175.784C190.177 178.004 192.657 176.644 192.797 175.164C193.451 170.139 195.139 165.303 197.757 160.964C201.397 160.864 206.537 157.244 205.857 153.484ZM179.857 151.644C179.277 150.004 180.817 148.664 181.857 150.224C182.771 151.616 183.271 153.239 183.297 154.904C182.723 154.566 182.175 154.185 181.657 153.764C180.911 153.178 180.281 152.459 179.797 151.644H179.857ZM194.437 149.244C196.237 150.184 193.557 154.144 192.757 154.924C191.877 153.044 191.917 147.904 194.377 149.244H194.437ZM199.637 157.724C200.131 156.7 200.707 155.717 201.357 154.784C203.737 151.824 206.317 153.784 202.657 156.344C201.795 157.069 200.751 157.546 199.637 157.724Z" fill="#0D128A"/>
<path d="M180.277 86.684C180.663 86.5326 181.001 86.2832 181.261 85.9606C181.521 85.6378 181.691 85.253 181.757 84.844C181.897 84.164 182.017 83.484 182.157 82.844C182.297 82.204 182.017 81.404 181.237 81.624C180.851 81.7754 180.513 82.0248 180.253 82.3476C179.993 82.6702 179.823 83.055 179.757 83.464C179.617 84.144 179.497 84.824 179.357 85.464C179.217 86.104 179.497 86.904 180.277 86.684Z" fill="#0D128A"/>
<path d="M187.637 83.124C187.291 83.3374 186.999 83.63 186.787 83.9776C186.575 84.3252 186.449 84.718 186.417 85.124V87.124C186.405 87.276 186.435 87.4284 186.507 87.5634C186.577 87.6986 186.685 87.8104 186.817 87.8862C186.949 87.9618 187.101 87.998 187.253 87.9906C187.405 87.9832 187.553 87.9322 187.677 87.844C188.027 87.6344 188.321 87.3428 188.533 86.9944C188.747 86.646 188.871 86.2512 188.897 85.844V83.904C188.923 83.7472 188.903 83.586 188.837 83.4412C188.771 83.2962 188.665 83.174 188.529 83.0904C188.395 83.0066 188.237 82.965 188.079 82.971C187.919 82.9772 187.765 83.0304 187.637 83.124Z" fill="#0D128A"/>
<path d="M187.197 90.9241C185.417 92.2441 183.077 93.4841 180.897 92.2841C180.121 91.7967 179.475 91.1297 179.011 90.3395C178.549 89.5491 178.283 88.6589 178.237 87.7441C178.037 85.7441 175.637 87.7441 175.777 89.1041C175.805 90.4327 176.191 91.7291 176.895 92.8559C177.599 93.9827 178.595 94.8977 179.777 95.5041C182.677 96.7241 185.657 95.0041 187.957 93.3041C189.077 92.4241 189.017 89.6041 187.197 90.9241Z" fill="#0D128A"/>
<path d="M45.637 164.224C46.417 165.944 48.497 163.244 47.997 162.224C47.257 160.584 47.217 160.224 46.757 160.224C45.717 160.104 44.617 162.024 44.977 162.804L45.637 164.224Z" fill="#0D128A"/>
<path d="M50.757 162.244C51.377 163.104 52.757 161.864 53.017 160.664C53.137 159.844 53.017 159.844 51.997 158.404C51.397 157.564 49.997 158.804 49.737 160.004C49.637 160.824 49.757 160.824 50.757 162.244Z" fill="#0D128A"/>
<path d="M55.217 164.324C54.497 166.504 53.517 169.044 51.017 169.604C49.7852 169.749 48.5368 169.568 47.3964 169.081C46.256 168.593 45.2632 167.815 44.517 166.824C43.497 165.644 41.517 168.404 42.397 169.404C43.4104 170.785 44.8326 171.812 46.4624 172.34C48.092 172.868 49.8464 172.869 51.477 172.344C54.677 171.004 56.357 167.644 57.477 164.524C58.097 162.384 55.777 162.644 55.217 164.324Z" fill="#0D128A"/>
<path d="M214.137 166.064C216.501 162.271 217.863 157.94 218.093 153.476C218.323 149.013 217.413 144.565 215.451 140.549C213.489 136.534 210.539 133.083 206.877 130.521C203.215 127.959 198.963 126.37 194.517 125.904C171.637 123.904 155.797 152.044 171.277 170.224C171.377 170.364 172.797 171.484 172.797 171.484C172.797 171.484 172.797 178.484 172.797 181.364C172.797 181.604 172.897 182.084 173.177 182.164L191.317 188.164C192.237 188.464 192.957 187.544 193.317 186.784L196.537 178.784C200.183 177.976 203.625 176.431 206.653 174.243C209.679 172.056 212.227 169.272 214.137 166.064ZM176.977 179.904C176.477 179.744 175.897 179.444 175.337 179.304C175.337 178.264 175.337 178.364 175.337 171.764C175.443 171.12 175.373 170.46 175.139 169.852C174.903 169.243 174.509 168.709 173.997 168.304C170.003 163.939 167.777 158.241 167.759 152.323C167.741 146.406 169.929 140.694 173.897 136.304C178.017 132.117 183.517 129.566 189.375 129.123C195.233 128.681 201.053 130.377 205.755 133.898C210.457 137.419 213.723 142.526 214.949 148.271C216.175 154.016 215.275 160.011 212.417 165.144C210.821 167.774 208.721 170.062 206.235 171.875C203.749 173.687 200.929 174.989 197.937 175.704C195.137 176.384 195.317 175.704 191.937 184.844L176.977 179.904Z" fill="#0D128A"/>
<path d="M154.597 108.044C156.597 112.044 165.557 109.424 168.597 108.544C172.561 107.387 176.427 105.916 180.157 104.144C183.737 109.498 187.751 114.548 192.157 119.244C193.057 120.084 194.157 121.244 195.617 120.884C199.157 119.804 197.817 112.764 197.617 110.304C197.237 107.144 196.717 103.984 196.097 100.844C198.617 100.204 201.137 99.4641 203.617 98.6641C206.877 97.6041 212.097 96.3441 213.957 93.1241C217.357 87.2841 201.457 84.5441 196.817 83.7041C196.807 80.4369 196.627 77.1725 196.277 73.9241C195.997 71.1841 195.817 64.8841 192.797 63.4241C189.777 61.9641 184.977 66.8441 183.037 68.6841C180.549 71.0747 178.187 73.5913 175.957 76.2241C170.977 74.5641 155.597 69.4041 155.457 76.9841C155.457 80.3641 158.857 83.9441 160.857 86.3441C162.477 88.3441 164.177 90.1841 165.937 92.0041C163.725 93.7895 161.621 95.7063 159.637 97.7441C157.637 99.9041 152.837 104.544 154.597 108.044ZM168.357 92.9841C168.857 92.6041 169.717 91.1241 169.097 90.5041C165.003 86.8005 161.483 82.5065 158.657 77.7641C158.517 77.5041 158.357 76.8441 158.177 76.4041H158.377C160.669 76.4109 162.955 76.5981 165.217 76.9641C168.523 77.5755 171.785 78.4109 174.977 79.4641C176.377 79.9241 176.197 78.5241 182.617 72.1441C184.057 70.7241 189.137 64.8841 191.457 66.6841C192.557 67.5441 192.897 69.8441 193.157 71.1041C193.983 75.9729 194.371 80.9059 194.317 85.8441C194.299 86.0465 194.355 86.2485 194.477 86.4111C194.599 86.5737 194.777 86.6853 194.977 86.7241C200.067 87.6059 205.041 89.0687 209.797 91.0841C211.797 92.0841 212.517 92.5241 207.277 94.5241C203.175 96.0001 198.997 97.2487 194.757 98.2641C194.251 98.4521 193.827 98.8105 193.557 99.2777C193.287 99.7451 193.187 100.292 193.277 100.824C193.877 103.604 194.377 106.424 194.797 109.264C195.797 115.904 195.417 116.444 195.377 117.484C192.307 114.72 189.557 111.62 187.177 108.244C185.417 105.904 183.677 103.524 182.017 101.104C181.883 100.956 181.699 100.862 181.499 100.84C181.301 100.818 181.101 100.869 180.937 100.984C175.411 103.703 169.535 105.641 163.477 106.744C150.877 108.364 158.237 100.784 168.357 92.9841Z" fill="#0D128A"/>
<path d="M82.1972 85.6441C82.6372 88.5841 83.1772 91.5041 83.8372 94.4041C84.4972 97.3041 85.2372 103.204 88.0172 104.724C92.5372 107.164 96.8772 93.3441 98.3972 88.0641C101.597 88.3241 104.817 88.4441 107.997 88.3841C111.177 88.3241 116.897 88.5041 119.017 85.3041C121.137 82.1041 117.497 77.3041 115.497 74.8041C113.218 71.9121 110.774 69.1541 108.177 66.5441C110.177 61.9241 116.057 46.8841 110.177 46.9041C106.717 46.9041 102.917 50.0441 100.177 51.9241C98.1772 53.3441 96.1772 54.8441 94.1772 56.4241C92.371 53.6173 90.3658 50.9439 88.1772 48.4241C86.1772 46.2441 82.2972 41.3841 78.9972 43.8041C74.9972 46.7441 76.2972 54.3041 76.9972 58.3441C77.7562 62.2739 78.8194 66.1389 80.1772 69.9041C77.2772 71.5841 74.3972 73.3241 71.5972 75.1841C68.7972 77.0441 62.7972 80.0441 62.3972 83.7841C61.8972 88.5441 77.6372 86.2641 82.1972 85.6441ZM81.9372 71.6441C82.6172 71.2441 83.4172 70.0441 83.0972 69.2041C80.8822 63.4643 79.4624 57.4485 78.8772 51.3241C78.8772 50.2441 78.5372 46.6041 79.7572 46.1241C81.6172 45.3841 86.5172 51.3241 87.7572 52.8841C89.478 55.0353 91.0804 57.2785 92.5572 59.6041C92.8772 60.1241 93.5972 59.7841 93.9572 59.6041C97.9572 56.2241 102.897 51.7641 107.957 50.2841C109.097 49.9641 109.657 49.8041 109.957 50.9041C110.597 52.7441 109.377 56.0041 108.877 57.7641C108.008 60.8593 106.932 63.8927 105.657 66.8441C105.49 67.0677 105.372 67.3239 105.31 67.5959C105.248 67.8681 105.244 68.1501 105.297 68.4241C105.331 68.5215 105.385 68.6103 105.457 68.6841C108.517 71.7241 115.297 79.1041 116.737 82.8641C117.337 84.4841 117.337 84.5041 112.857 85.0041C107.974 85.3641 103.07 85.3039 98.1972 84.8241C97.4372 84.8241 96.6972 85.6441 96.5172 86.2841C95.5372 89.7441 92.7772 98.2841 90.5172 101.104C89.6772 102.164 89.4172 101.804 88.7172 100.664C87.1218 97.3833 86.0746 93.8633 85.6172 90.2441C85.1172 87.8241 84.6772 85.4041 84.3172 82.9441C84.3172 82.4841 83.7972 82.3841 83.4172 82.4441C78.3316 83.1031 73.2042 83.3839 68.0772 83.2841C67.0562 83.3577 66.0328 83.1793 65.0972 82.7641C67.7796 80.2787 70.7548 78.1295 73.9572 76.3641C76.6772 74.7641 79.2972 73.2041 81.9372 71.7241V71.6441ZM65.1772 82.6841H65.0572C64.2772 82.9041 65.8972 81.7441 65.1772 82.7641V82.6841Z" fill="#0D128A"/>
<path d="M276.317 228.644C274.037 226.644 271.657 224.644 269.217 222.944C270.291 219.532 271.101 216.042 271.637 212.504C271.997 209.984 273.317 202.504 269.637 201.544C266.577 200.804 262.937 205.224 261.177 207.104C259.389 209.012 257.707 211.014 256.137 213.104C254.477 211.764 252.777 210.484 251.017 209.264C249.257 208.044 245.817 205.264 243.317 205.924C237.937 207.264 242.417 218.084 244.197 222.204C242.517 223.964 240.877 225.784 239.377 227.684C237.877 229.584 234.297 233.684 235.637 236.484C236.977 239.284 241.877 238.704 244.117 238.744C246.647 238.774 249.177 238.674 251.697 238.444C252.677 242.004 256.117 254.164 260.097 250.964C262.357 249.144 263.037 245.164 263.657 242.504C264.117 240.504 264.497 238.644 264.817 236.704C267.157 236.964 269.517 237.144 271.877 237.224C274.237 237.304 278.577 237.864 280.017 235.364C281.457 232.864 278.017 230.164 276.317 228.644ZM275.197 234.124C271.633 234.094 268.073 233.852 264.537 233.404C263.657 233.404 262.857 234.544 262.757 235.284C262.291 238.448 261.663 241.584 260.877 244.684C260.729 246.006 260.271 247.274 259.537 248.384C259.077 248.204 258.677 247.444 258.417 247.064C257.489 245.588 256.731 244.01 256.157 242.364C253.577 235.744 254.317 235.204 253.057 235.324C251.797 235.444 249.057 235.584 247.297 235.624C244.997 235.624 240.537 236.164 238.577 234.664C236.097 232.784 245.877 223.744 246.297 223.204C246.581 222.96 246.799 222.65 246.931 222.3C247.065 221.952 247.107 221.574 247.057 221.204C245.977 218.744 242.037 208.544 244.517 209.504C248.403 211.35 251.983 213.778 255.137 216.704C255.577 217.064 256.377 216.444 256.617 216.104C257.917 214.324 259.297 212.604 260.757 210.924C262.217 209.244 265.577 204.544 268.057 204.724C272.397 205.064 267.597 221.364 266.737 223.984C266.557 224.504 266.457 225.204 266.957 225.564C270.521 228.086 273.865 230.902 276.957 233.984C276.137 234.004 275.437 234.124 275.197 234.124Z" fill="#0D128A"/>
<path d="M71.377 178.944C75.377 175.764 67.617 170.364 66.537 167.704C65.017 163.984 67.157 161.324 69.097 158.324C69.977 156.944 71.917 154.164 71.197 152.324C70.477 150.484 68.697 151.064 67.337 151.284C64.057 151.904 60.977 153.904 57.637 153.044C53.857 152.164 51.977 148.444 49.217 146.064C47.717 144.744 45.797 143.424 43.977 144.944C38.797 149.244 42.777 158.064 35.977 161.144C33.597 162.124 24.617 165.484 27.357 169.564C28.797 171.724 32.497 171.884 34.597 172.964C35.983 173.651 37.14 174.725 37.928 176.056C38.716 177.387 39.1012 178.918 39.037 180.464C39.037 183.464 37.617 191.044 43.037 188.644C45.2832 187.508 47.2502 185.89 48.797 183.904C51.157 181.184 52.797 177.704 56.657 177.164C59.717 176.744 62.817 178.344 65.757 179.024C67.397 179.324 69.857 180.124 71.377 178.944ZM49.637 179.424C48.457 181.004 44.217 187.164 41.757 185.904C39.957 184.984 41.577 179.504 41.417 177.764C41.1978 175.461 40.1872 173.305 38.557 171.664C36.437 169.664 33.717 169.364 31.137 168.124C31.337 168.124 28.677 167.704 30.857 166.384C32.467 165.422 34.1526 164.593 35.897 163.904C38.4144 162.828 40.4544 160.873 41.637 158.404C43.037 155.444 42.857 152.004 43.937 148.944C44.637 146.944 45.337 147.304 46.877 148.504C48.3352 149.706 49.6748 151.046 50.877 152.504C51.7912 153.655 52.948 154.591 54.265 155.245C55.5822 155.898 57.027 156.253 58.497 156.284C62.057 156.284 66.177 153.504 67.957 154.284C68.937 154.684 68.897 154.404 68.337 155.744C67.477 157.744 65.237 159.744 64.337 162.344C63.837 163.651 63.604 165.044 63.6522 166.442C63.7002 167.841 64.0284 169.215 64.617 170.484C65.9772 172.553 67.5308 174.489 69.257 176.264C67.1382 175.874 65.0472 175.346 62.997 174.684C60.4548 173.704 57.639 173.704 55.097 174.684C52.8636 175.713 50.9696 177.357 49.637 179.424Z" fill="#0D128A"/>
<path d="M247.637 272.944C243.593 273.792 239.845 275.696 236.777 278.464C235.201 267.25 232.943 256.144 230.017 245.204C230.057 244.892 230.057 244.576 230.017 244.264C229.497 238.724 221.677 236.124 217.357 234.684C189.977 225.544 133.177 225.584 105.937 234.524C100.997 236.144 93.337 238.784 91.937 244.524C91.7268 245.384 91.7268 246.284 91.937 247.144C89.0512 256.872 86.8852 266.798 85.457 276.844C79.097 272.524 71.197 270.164 67.457 278.644C65.456 283.468 64.7092 288.718 65.2864 293.908C65.8634 299.098 67.7454 304.058 70.757 308.324C73.8428 312.2 78.2654 314.782 83.157 315.564C83.997 332.664 88.237 350.004 100.717 361.564C126.577 385.344 193.417 387.464 223.417 358.784C235.197 347.544 238.377 331.924 239.137 315.724C243.395 315.118 247.363 313.21 250.497 310.264C254.501 306.17 257.107 300.912 257.937 295.244C259.017 288.044 258.837 271.164 247.637 272.944ZM83.837 290.724L77.637 285.604C76.617 284.764 74.797 287.604 75.917 288.564L83.477 294.824C83.057 300.384 82.817 306.284 82.957 312.264C74.537 310.264 69.857 303.684 68.217 295.224C67.017 289.064 66.557 273.684 76.717 276.264C79.724 277.136 82.5212 278.612 84.937 280.604C84.417 283.904 84.037 287.344 83.737 290.724H83.837ZM105.357 237.604C136.157 227.484 203.097 229.244 223.017 240.824C229.297 244.484 228.677 247.144 223.817 249.904C220.509 251.664 216.995 253.008 213.357 253.904C192.797 259.664 163.477 260.444 141.937 258.924C129.677 258.064 108.757 255.704 98.237 249.404C96.6012 248.594 95.2792 247.264 94.477 245.624C92.757 241.324 102.597 238.484 105.257 237.604H105.357ZM227.497 350.944C219.797 361.404 207.497 367.784 195.377 371.664C167.557 380.524 133.037 378.864 107.977 362.924C77.177 343.324 83.977 284.924 93.437 249.944C95.7096 252.148 98.4416 253.82 101.437 254.844C133.077 267.544 215.897 264.564 228.217 249.364C235.297 275.904 243.637 328.924 227.397 350.944H227.497ZM251.077 306.404C248.089 309.982 243.817 312.246 239.177 312.704C239.317 306.864 239.177 301.004 238.677 295.184C239.017 295.024 238.497 295.424 247.137 288.264C248.277 287.344 248.197 284.464 246.477 285.884L238.477 292.484C238.257 292.664 238.737 293.004 237.137 281.204C239.291 279.354 241.721 277.848 244.337 276.744C248.817 275.024 252.577 276.364 254.337 280.744C257.337 288.644 256.337 299.704 250.977 306.404H251.077Z" fill="#0D128A"/>
<path d="M207.237 304.784C196.377 301.244 183.237 310.044 174.617 312.784C168.707 314.586 162.467 315.044 156.357 314.124C142.217 312.124 130.357 302.024 121.577 304.404C109.797 307.584 112.257 325.604 114.957 334.124C118.126 342.82 123.692 350.44 131.011 356.102C138.331 361.766 147.105 365.24 156.317 366.124C181.737 368.684 211.557 351.184 216.877 325.824C218.597 317.664 216.017 307.644 207.237 304.784ZM204.817 344.684C199.215 350.604 192.457 355.308 184.959 358.506C177.461 361.702 169.387 363.322 161.237 363.264C141.997 362.844 123.577 350.444 117.237 332.024C115.458 326.696 114.837 321.05 115.417 315.464C115.797 312.464 116.757 309.284 119.677 307.884C125.217 305.244 134.137 310.164 140.837 312.984C154.097 318.524 165.637 319.724 180.837 312.984C187.037 310.244 193.737 307.124 200.637 306.984C202.581 306.952 204.513 307.318 206.309 308.064C208.105 308.808 209.729 309.916 211.079 311.314C212.431 312.714 213.479 314.376 214.159 316.198C214.841 318.02 215.139 319.962 215.037 321.904C214.957 330.324 210.357 338.604 204.817 344.684Z" fill="#0D128A"/>
<path d="M150.477 303.904C152.417 302.464 153.897 300.49 154.737 298.224C156.357 303.324 159.617 308.104 164.877 306.764C169.137 305.664 171.277 301.264 171.857 296.764C172.599 297.892 173.429 298.962 174.337 299.964C178.337 304.304 184.737 307.804 190.137 303.844C202.017 295.144 192.817 267.324 178.857 265.364C172.257 264.444 168.097 270.604 167.117 276.384C166.317 281.622 167.009 286.982 169.117 291.844C169.107 291.97 169.107 292.098 169.117 292.224C170.197 296.604 168.257 307.084 161.517 302.804C154.777 298.524 157.517 290.304 153.797 280.144C151.297 273.884 146.417 266.384 139.097 265.364C132.497 264.444 128.337 270.604 127.357 276.384C124.657 293.044 140.137 311.404 150.477 303.904ZM171.017 271.244C171.009 271.318 171.009 271.39 171.017 271.464C177.137 283.464 191.657 287.164 192.357 286.904C193.657 293.504 193.477 302.504 185.817 302.544C178.697 302.544 173.357 294.544 171.137 288.764C169.637 284.524 167.897 275.684 171.017 271.164V271.244ZM131.357 271.244C133.717 279.244 150.077 287.844 152.797 286.904C154.077 293.504 153.897 302.504 146.237 302.544C139.117 302.544 133.797 294.544 131.557 288.764C129.957 284.524 128.237 275.684 131.357 271.164V271.244Z" fill="#0D128A"/>
<path d="M186.997 315.044C181.537 317.204 175.537 321.184 166.277 322.384C159.685 322.744 153.099 321.546 147.057 318.884C139.937 315.204 130.697 309.464 124.557 315.244C119.837 319.684 120.697 327.764 122.877 333.244C133.757 359.504 172.997 362.404 193.537 346.564C198.549 342.644 202.599 337.63 205.377 331.904C207.657 327.184 209.377 320.744 205.157 316.504C200.497 311.744 191.957 312.304 186.997 315.044ZM141.357 320.024C148.084 323.606 155.577 325.514 163.197 325.584C163.197 325.584 163.197 334.724 163.197 339.204C157.901 339.022 152.833 337.01 148.852 333.514C144.871 330.018 142.222 325.252 141.357 320.024ZM183.837 326.024C182.465 329.774 180.003 333.028 176.767 335.366C173.531 337.704 169.667 339.02 165.677 339.144C165.677 339.144 165.677 325.504 165.677 325.464C172.947 324.568 179.941 322.134 186.197 318.324C185.753 320.99 184.959 323.586 183.837 326.044V326.024Z" fill="#0D128A"/>
<path d="M111.897 250.384C131.397 255.404 181.137 255.824 204.597 251.044C208.137 250.324 215.357 249.284 216.077 244.724C216.197 244.38 216.197 244.008 216.077 243.664C215.117 240.484 208.937 239.664 206.417 239.084C185.397 234.544 138.177 234.324 115.597 239.084C112.237 239.784 105.837 240.724 104.557 244.664C103.277 248.604 109.317 249.724 111.897 250.384Z" fill="#0D128A"/>
<path d="M192.937 191.324L172.597 184.384C171.217 183.924 169.637 186.924 170.877 187.344L191.237 194.284C192.597 194.744 194.177 191.744 192.937 191.324Z" fill="#0D128A"/>
<path d="M171.377 189.904C169.997 189.444 168.417 192.464 169.657 192.864L188.037 198.984C189.417 199.444 190.997 196.444 189.757 196.024L171.377 189.904Z" fill="#0D128A"/>
<path d="M149.297 66.2641C151.991 65.8643 154.453 64.5169 156.243 62.4639C158.031 60.4109 159.029 57.7871 159.057 55.0641C159.007 54.3447 158.907 53.6297 158.757 52.9241L169.637 48.4241C170.611 49.6343 171.871 50.5851 173.301 51.1921C174.731 51.7993 176.289 52.0437 177.837 51.9041C186.917 50.9641 191.277 37.6641 182.357 32.5841C182.617 32.2441 182.097 33.2441 190.897 15.7041C192.501 16.2881 194.261 16.2827 195.863 15.6893C197.463 15.0959 198.801 13.9527 199.637 12.4641C203.297 6.68406 199.077 0.34406 193.457 1.06406C187.457 1.82406 183.937 10.2441 189.097 14.5841C180.117 32.4641 180.677 31.2241 180.597 31.7841C179.223 31.3571 177.769 31.2469 176.345 31.4617C174.921 31.6765 173.565 32.2105 172.377 33.0241C168.271 28.2107 164.177 23.3775 160.097 18.5241C160.581 17.3879 160.807 16.1583 160.757 14.9241C160.703 14.0009 160.461 13.0985 160.047 12.2719C159.633 11.4453 159.053 10.7119 158.347 10.1167C157.639 9.52132 156.817 9.0766 155.931 8.80966C155.047 8.54272 154.115 8.45914 153.197 8.56406C151.272 8.91028 149.53 9.92046 148.273 11.4187C147.015 12.9169 146.323 14.8083 146.317 16.7641C146.293 18.1669 146.699 19.5433 147.482 20.7079C148.264 21.8723 149.385 22.7691 150.693 23.2769C152.001 23.7847 153.433 23.8795 154.795 23.5481C156.159 23.2169 157.389 22.4755 158.317 21.4241L170.017 35.2441C168.743 36.7237 167.903 38.5275 167.593 40.4553C167.283 42.3829 167.513 44.3591 168.257 46.1641L157.877 50.4641C157.011 48.7257 155.637 47.2925 153.935 46.3561C152.235 45.4199 150.288 45.0249 148.357 45.2241C145.651 45.5963 143.172 46.9359 141.378 48.9949C139.583 51.0539 138.596 53.6929 138.597 56.4241C138.598 57.7901 138.882 59.1413 139.431 60.3919C139.981 61.6427 140.784 62.7659 141.789 63.6905C142.795 64.6153 143.981 65.3213 145.273 65.7643C146.566 66.2073 147.936 66.3775 149.297 66.2641ZM189.097 7.90406C189.149 7.30346 189.329 6.72118 189.629 6.19754C189.927 5.6739 190.335 5.22142 190.827 4.87142C191.317 4.5214 191.879 4.28224 192.471 4.17046C193.063 4.05868 193.673 4.07698 194.257 4.22406C195.455 4.43862 196.545 5.05812 197.343 5.97908C198.139 6.90004 198.597 8.06668 198.637 9.28406C198.317 15.2641 188.957 13.3041 189.097 7.90406ZM153.997 11.7441C155.193 11.9579 156.279 12.5745 157.077 13.4913C157.873 14.4083 158.331 15.5703 158.377 16.7841C158.057 22.7841 148.697 20.7841 148.837 15.4241C148.886 14.8217 149.065 14.2373 149.362 13.7111C149.66 13.1851 150.068 12.7303 150.559 12.3781C151.05 12.0259 151.612 11.7849 152.207 11.6721C152.799 11.5591 153.411 11.5769 153.997 11.7241V11.7441ZM184.817 42.3041C184.397 51.8641 169.877 49.8441 169.857 40.9241C169.857 33.5441 184.377 32.4641 184.817 42.3041ZM149.757 48.4241C151.639 48.7725 153.345 49.7575 154.587 51.2143C155.827 52.6709 156.531 54.5105 156.577 56.4241C156.157 66.4241 140.957 64.4241 141.017 55.0641C141.067 54.0189 141.345 52.9973 141.833 52.0713C142.32 51.1455 143.004 50.3375 143.837 49.7045C144.671 49.0715 145.632 48.6287 146.655 48.4075C147.678 48.1863 148.737 48.1921 149.757 48.4241Z" fill="#0D128A"/>
<path d="M218.637 71.364C226.117 72.104 230.277 64.944 231.177 57.364C232.345 49.7432 232.781 42.0278 232.477 34.324C240.385 36.3702 248.595 36.9798 256.717 36.124C256.457 42.584 255.877 49.024 255.077 55.444C253.043 54.6162 250.835 54.3088 248.653 54.5498C246.469 54.7906 244.381 55.5724 242.577 56.824C241.035 57.9876 239.793 59.5012 238.951 61.24C238.109 62.9788 237.693 64.8928 237.737 66.824C238.137 75.104 250.217 77.244 254.997 67.044C256.381 64.0012 257.123 60.7062 257.177 57.364C257.177 57.104 258.837 44.984 259.177 33.824C259.193 33.7002 259.179 33.5744 259.135 33.4572C259.093 33.34 259.021 33.2348 258.929 33.1506C258.837 33.0664 258.727 33.0054 258.607 32.973C258.485 32.9404 258.359 32.9374 258.237 32.964C249.097 34.0236 239.839 33.1862 231.037 30.504C229.817 30.124 228.357 33.144 229.837 33.624C230.209 40.1254 230.061 46.646 229.397 53.124C227.339 52.2636 225.101 51.9318 222.881 52.1588C220.663 52.386 218.537 53.1646 216.697 54.424C209.957 59.524 210.017 70.484 218.637 71.364ZM249.217 70.104C248.169 70.6258 246.999 70.8566 245.831 70.772C244.663 70.6876 243.539 70.2912 242.577 69.624C241.927 69.1218 241.383 68.4952 240.979 67.7806C240.573 67.066 240.315 66.2778 240.219 65.4622C240.121 64.6466 240.189 63.82 240.415 63.0304C240.641 62.2408 241.023 61.5044 241.537 60.864C244.517 56.864 249.917 57.064 254.697 58.864C254.669 59.9854 254.549 61.1026 254.337 62.204C253.637 65.624 252.377 68.584 249.217 70.104ZM228.877 56.444C228.825 59.3122 228.099 62.128 226.757 64.664C226.291 65.5112 225.655 66.254 224.891 66.8462C224.125 67.4386 223.249 67.8678 222.311 68.1078C221.373 68.3476 220.397 68.393 219.443 68.241C218.487 68.089 217.573 67.7428 216.757 67.224C211.077 63.444 215.637 51.244 228.877 56.444Z" fill="#0D128A"/>
<path d="M244.837 86.9241C243.937 86.6841 242.937 88.2241 243.017 89.2441V118.524C243.017 119.524 243.977 119.564 244.597 119.024L270.837 96.3041C271.477 95.7641 272.397 93.8841 271.097 93.5441L244.837 86.9241ZM245.477 115.284V90.5041L267.637 96.1041L245.477 115.284Z" fill="#0D128A"/>
<path d="M45.337 104.484L65.997 113.904C67.257 114.484 68.217 112.364 67.997 111.404L64.837 93.964C64.837 93.504 64.517 93.384 64.217 93.444C63.917 93.504 64.837 93.024 46.217 101.444C45.477 101.904 44.237 103.904 45.337 104.484ZM62.657 96.944C63.4436 101.197 64.217 105.471 64.977 109.764L49.797 102.784L62.657 96.944Z" fill="#0D128A"/>
<path d="M126.737 19.9041C127.297 20.4041 128.137 19.5841 128.477 18.9241L137.637 2.04406C137.977 1.42406 138.297 -0.295943 137.037 0.0440571L114.817 4.90406C113.637 5.14406 112.757 7.08406 113.637 7.90406L126.737 19.9041ZM134.497 3.50406L127.637 16.2041L117.817 7.18406L134.497 3.50406Z" fill="#0D128A"/>
<path d="M128.137 193.204C111.637 174.564 79.317 178.964 57.777 196.104C54.217 198.924 50.597 202.524 49.777 207.204C48.137 216.304 56.417 218.544 63.617 218.024C79.617 216.884 97.957 208.704 105.917 194.144L100.597 193.084C93.377 201.924 81.217 207.544 69.937 210.024C65.5672 211.25 60.9514 211.298 56.557 210.164C53.997 209.304 54.137 206.924 55.797 205.124C57.26 203.768 58.8546 202.562 60.557 201.524C91.737 178.684 130.557 183.524 135.297 226.244C135.88 231.188 136.007 236.176 135.677 241.144C137.937 238.644 137.437 239.144 140.417 236.144C140.277 221.124 137.837 204.744 128.137 193.204Z" fill="#6CECC4"/>
<path d="M271.297 149.104C269.297 141.644 262.057 135.984 254.197 137.564C246.337 139.144 240.197 146.004 237.917 153.244C236.743 157.007 236.561 161.01 237.389 164.864C238.215 168.718 240.023 172.293 242.637 175.244L252.297 168.784C240.697 161.584 243.077 146.784 254.297 147.584C261.897 148.104 268.557 158.244 260.297 167.584C254.017 174.664 242.997 178.384 241.697 179.264C231.017 183.604 219.137 185.084 209.097 190.904C189.917 202.004 183.657 223.504 186.057 245.164C186.337 247.564 186.217 249.364 188.897 249.764C190.437 250.01 192.013 249.858 193.477 249.324C196.357 248.064 194.737 244.864 194.257 242.464C193.843 240.326 193.589 238.16 193.497 235.984C192.997 227.304 194.137 217.484 198.737 209.984C203.337 202.484 211.437 197.984 219.757 195.624C229.917 192.624 239.937 190.004 249.357 184.944C263.277 177.164 275.337 164.284 271.297 149.104Z" fill="#6CECC4"/>
<path d="M132.737 141.264C131.637 133.744 139.277 124.624 147.937 127.444C151.677 128.664 155.197 132.324 154.457 136.484C153.895 138.62 152.807 140.581 151.295 142.191C149.783 143.801 147.893 145.009 145.797 145.704C143.498 146.461 141.072 146.76 138.657 146.584L142.397 157.684C158.397 155.104 166.217 134.724 156.757 121.684C154.553 118.708 151.311 116.667 147.674 115.967C144.036 115.267 140.269 115.959 137.117 117.904C128.337 123.184 121.617 137.744 131.117 160.024C134.306 167.132 138.248 173.878 142.877 180.144C145.976 183.986 148.867 187.992 151.537 192.144C153.685 195.55 155.123 199.358 155.763 203.334C156.401 207.31 156.229 211.376 155.257 215.284C152.865 223.21 148.637 230.46 142.917 236.444C140.257 239.304 131.637 247.564 132.337 249.224C132.577 249.804 136.837 250.304 137.597 250.444C138.286 250.666 139.012 250.748 139.733 250.686C140.454 250.624 141.156 250.42 141.797 250.084C143.645 248.606 145.304 246.906 146.737 245.024C162.077 227.724 167.837 205.844 156.857 185.484C150.697 174.044 135.277 158.764 132.737 141.264Z" fill="#FF3E74"/>
<path d="M290.757 127.684C289.037 131.564 290.477 133.884 290.197 141.684C289.917 149.484 287.897 160.004 281.517 164.724C278.141 167.05 274.205 168.431 270.117 168.724C275.817 158.584 276.957 143.784 266.117 136.724C252.897 128.104 237.837 143.184 235.017 155.584C234.125 159.296 234.083 163.163 234.897 166.893C235.711 170.623 237.359 174.121 239.717 177.124C229.717 180.904 218.697 182.504 209.277 187.844C188.677 199.544 180.937 222.684 183.397 246.024C183.577 247.704 183.397 250.264 184.637 251.604C186.457 253.604 190.477 253.084 192.757 252.384C194.195 252.006 195.459 251.146 196.339 249.95C197.221 248.752 197.665 247.288 197.597 245.804C197.597 243.384 196.537 241.044 196.217 238.664C195.097 230.664 195.777 220.124 199.437 212.664C201.999 207.898 206.013 204.072 210.897 201.744C219.577 197.264 227.437 197.744 243.797 190.364C252.517 186.364 252.817 184.984 254.797 184.904C256.357 184.904 258.037 185.304 259.597 185.344C264.881 185.499 270.145 184.63 275.097 182.784C297.477 174.464 305.097 146.664 302.677 125.024C301.637 116.204 292.997 122.624 290.757 127.684ZM258.917 181.904C258.517 181.904 258.057 181.764 257.557 181.664C268.137 180.844 271.817 174.344 273.037 170.984C276.063 170.383 278.939 169.186 281.497 167.464C288.777 162.444 291.497 152.504 292.457 143.684C293.577 132.064 290.737 129.084 294.937 125.164C297.297 122.964 299.697 122.924 300.317 126.384C302.437 145.344 296.797 170.264 277.617 178.724C271.737 181.295 265.317 182.387 258.917 181.904ZM193.437 235.904C193.529 238.08 193.783 240.246 194.197 242.384C194.677 244.784 196.197 247.984 193.417 249.244C191.953 249.778 190.377 249.93 188.837 249.684C186.157 249.284 186.277 247.484 185.997 245.084C183.597 223.424 189.877 201.924 209.037 190.824C219.037 185.004 231.037 183.524 241.637 179.184C243.137 178.164 253.977 174.584 260.217 167.564C268.217 158.464 262.217 148.104 254.217 147.564C243.277 146.804 240.517 161.424 252.217 168.764L242.557 175.224C239.943 172.273 238.135 168.698 237.309 164.844C236.481 160.99 236.663 156.987 237.837 153.224C240.077 145.984 246.537 139.084 254.117 137.544C261.997 135.964 269.237 141.544 271.217 149.084C275.117 163.764 263.217 177.084 249.217 184.704C239.797 189.764 229.777 192.384 219.617 195.384C211.297 197.844 203.237 202.124 198.597 209.744C193.957 217.364 192.937 227.164 193.437 235.904ZM255.877 151.424C261.577 153.784 263.877 161.684 257.297 167.424C251.597 165.204 246.917 160.844 247.297 154.324C247.837 150.324 252.697 150.064 255.877 151.364V151.424Z" fill="#0D128A"/>
<path d="M143.637 160.404C157.337 157.104 165.157 141.904 162.657 128.404C161.537 122.404 158.217 116.184 152.257 113.784C149.042 112.617 145.563 112.384 142.221 113.114C138.88 113.843 135.813 115.504 133.377 117.904C128.693 122.54 125.616 128.553 124.597 135.064C121.769 132.425 119.639 129.127 118.397 125.464C117.594 122.424 117.518 119.238 118.177 116.164C120.227 109.112 123.805 102.597 128.657 97.0841C129.949 95.7529 131.158 94.3435 132.277 92.8641C134.437 89.5441 135.017 82.6641 131.677 79.8041C130.949 79.2515 130.045 78.9815 129.133 79.0439C128.221 79.1065 127.363 79.4973 126.717 80.1441C123.388 83.0273 120.515 86.3991 118.197 90.1441C112.969 97.6263 109.271 106.068 107.317 114.984C104.457 129.664 108.277 142.864 119.917 152.984C121.609 154.484 123.437 155.823 125.377 156.984C127.917 158.504 128.457 161.544 129.637 164.144C134.117 173.904 140.517 182.144 146.697 190.764C152.877 199.384 155.857 208.924 151.997 219.024C149.816 224.476 146.68 229.494 142.737 233.844C142.744 229.052 142.41 224.268 141.737 219.524C140.297 209.164 137.077 198.924 130.257 190.804C125.317 185.375 118.902 181.504 111.797 179.664C111.797 160.264 96.777 143.044 81.597 132.624C64.617 120.824 41.637 117.604 23.637 129.344C15.5632 134.862 9.13563 142.465 5.03703 151.344C3.77703 153.924 -4.68297 171.744 3.57703 171.344C7.29703 171.124 8.61703 166.164 9.57703 163.344C11.1452 158.2 13.632 153.382 16.917 149.124C29.937 132.744 57.517 129.364 81.257 149.484C89.817 156.724 98.997 166.664 101.757 177.944C90.9482 177.602 80.2346 180.062 70.657 185.084C62.197 189.364 51.637 195.644 48.157 205.084C46.737 208.864 46.457 213.824 48.977 217.224C50.1196 218.53 51.5322 219.574 53.117 220.282C54.7018 220.99 56.4214 221.346 58.157 221.324C67.217 221.944 76.917 219.064 85.037 215.324C95.037 210.664 103.917 203.224 108.717 193.324C113.227 194.724 117.374 197.1 120.862 200.282C124.35 203.466 127.093 207.38 128.897 211.744C132.46 221.092 133.961 231.102 133.297 241.084C133.297 242.024 133.077 243.264 133.017 244.504C130.697 247.504 128.497 251.284 131.017 252.724C132.754 253.3 134.568 253.61 136.397 253.644C138.065 253.924 139.773 253.864 141.417 253.464C144.757 252.384 146.837 248.664 149.017 246.124C162.877 229.904 169.657 208.944 161.697 188.884C157.637 178.164 149.637 169.904 143.637 160.404ZM146.777 245.144C145.344 247.026 143.685 248.726 141.837 250.204C141.196 250.54 140.494 250.744 139.773 250.806C139.052 250.868 138.326 250.786 137.637 250.564C136.877 250.424 132.617 249.924 132.377 249.344C131.677 247.664 140.157 239.604 142.957 236.564C148.677 230.58 152.905 223.33 155.297 215.404C156.279 211.5 156.461 207.436 155.831 203.46C155.203 199.484 153.775 195.676 151.637 192.264C148.967 188.112 146.076 184.106 142.977 180.264C138.356 173.993 134.414 167.248 131.217 160.144C121.637 137.904 128.417 123.184 137.117 117.904C140.255 115.946 144.013 115.236 147.649 115.913C151.285 116.591 154.535 118.607 156.757 121.564C166.217 134.664 158.357 155.044 142.397 157.564L138.657 146.464C141.072 146.64 143.497 146.341 145.797 145.584C147.893 144.889 149.783 143.681 151.295 142.071C152.807 140.461 153.895 138.5 154.457 136.364C155.197 132.204 151.677 128.544 147.937 127.324C139.337 124.524 131.537 133.444 132.737 141.144C135.557 159.144 150.897 174.284 156.937 185.484C167.937 206.004 162.117 227.904 146.817 245.144H146.777ZM135.237 226.244C130.577 183.424 91.637 178.764 60.537 201.524C58.8346 202.562 57.2402 203.768 55.777 205.124C54.117 206.924 53.977 209.304 56.537 210.164C60.9314 211.298 65.5474 211.25 69.917 210.024C81.177 207.544 93.357 202.024 100.577 193.084L105.897 194.144C97.897 208.704 79.497 216.884 63.597 218.024C56.397 218.544 48.117 216.304 49.757 207.204C50.597 202.524 54.217 198.924 57.757 196.104C78.697 179.444 111.097 174.104 128.117 193.204C137.797 204.724 140.257 221.044 140.377 236.144C137.677 238.904 137.837 238.704 135.637 241.144C135.964 236.176 135.843 231.19 135.277 226.244H135.237ZM94.177 196.244C88.0934 200.936 81.0978 204.308 73.637 206.144C69.7634 207.384 65.7002 207.926 61.637 207.744C54.117 207.084 58.377 205.984 61.217 203.904C72.1574 195.666 85.5226 191.29 99.217 191.464C97.7216 193.24 96.046 194.854 94.217 196.284L94.177 196.244ZM14.577 148.644C11.9272 152.34 9.78804 156.376 8.21704 160.644C7.70484 162.692 7.03624 164.698 6.21704 166.644C5.49704 167.884 4.11703 168.644 3.05703 167.364C2.47683 166.255 2.35464 164.962 2.71704 163.764C5.06804 154.383 9.69843 145.727 16.197 138.564C31.137 122.704 55.297 121.564 73.777 131.664C90.197 140.624 107.517 159.184 109.197 177.904L104.477 177.464C102.697 167.904 96.317 159.904 89.777 152.944C83.248 145.764 75.264 140.057 66.357 136.204C48.357 128.864 26.457 132.384 14.617 148.684L14.577 148.644ZM119.177 92.3041C121.267 88.9313 123.796 85.8509 126.697 83.1441C128.697 81.4841 130.157 82.3841 130.957 84.6441C131.708 86.7045 131.708 88.9637 130.957 91.0241C130.161 92.3285 129.185 93.5135 128.057 94.5441C121.857 101.764 116.197 111.244 115.197 120.764C115.218 126.277 117.204 131.603 120.797 135.784C119.717 139.224 118.797 146.384 126.357 153.324C104.257 138.964 104.697 113.784 119.177 92.3041ZM145.737 130.304C148.417 130.924 152.137 133.504 152.097 136.604C152.057 139.704 148.097 142.264 145.257 142.964C142.417 143.664 136.497 144.204 135.517 140.964C134.377 132.864 140.497 129.104 145.737 130.284V130.304Z" fill="#0D128A"/>
</svg>
