<svg width="384" height="48" viewBox="0 0 384 48" fill="none" xmlns="http://www.w3.org/2000/svg">
<g clip-path="url(#clip0_208_17318)">
<path d="M36 22V20H34V18H30V14H26V10H22V6H10V42H22V40V38H26V34H30V30H34V28H36V26H38V22H36ZM26 26V30H22V34H18V38H14V10H18V14H22V18H26V22H30V26H26Z" fill="black"/>
<path fill-rule="evenodd" clip-rule="evenodd" d="M152 6H164V10H168V14H172V18H176V20H178V28H176V30H172V34H168V38H164V42H152V6ZM168 30V26H172V22H168V18H164V14H160V10H156V38H160V34H164V30H168ZM180 6H184V42H180V6Z" fill="black"/>
<path fill-rule="evenodd" clip-rule="evenodd" d="M104 6H116V10H120V14H124V18H128V20H130V28H128V30H124V34H120V38H116V42H104V6ZM120 30V26H124V22H120V18H116V14H112V10H108V38H112V34H116V30H120ZM132 6H136V42H132V6Z" fill="black"/>
<line x1="206" y1="8" x2="232" y2="8" stroke="black" stroke-width="4"/>
<line x1="208" y1="10" x2="208" y2="20" stroke="black" stroke-width="4"/>
<rect x="200" y="12" width="4" height="4" fill="black"/>
<rect x="202" y="14" width="4" height="4" fill="black"/>
<rect x="206" y="17" width="4" height="4" fill="black"/>
<rect x="209" y="14" width="4" height="4" fill="black"/>
<rect x="212" y="12" width="4" height="4" fill="black"/>
<line x1="226" y1="40" x2="200" y2="40" stroke="black" stroke-width="4"/>
<line x1="224" y1="38" x2="224" y2="28" stroke="black" stroke-width="4"/>
<rect x="232" y="36" width="4" height="4" transform="rotate(-180 232 36)" fill="black"/>
<rect x="230" y="34" width="4" height="4" transform="rotate(-180 230 34)" fill="black"/>
<rect x="226" y="31" width="4" height="4" transform="rotate(-180 226 31)" fill="black"/>
<rect x="223" y="34" width="4" height="4" transform="rotate(-180 223 34)" fill="black"/>
<rect x="220" y="36" width="4" height="4" transform="rotate(-180 220 36)" fill="black"/>
<g clip-path="url(#clip1_208_17318)">
<line x1="254" y1="8" x2="280" y2="8" stroke="black" stroke-width="4"/>
<line x1="256" y1="10" x2="256" y2="20" stroke="black" stroke-width="4"/>
<rect x="248" y="12" width="4" height="4" fill="black"/>
<rect x="250" y="14" width="4" height="4" fill="black"/>
<rect x="254" y="17" width="4" height="4" fill="black"/>
<rect x="257" y="14" width="4" height="4" fill="black"/>
<rect x="260" y="12" width="4" height="4" fill="black"/>
<line x1="274" y1="40" x2="248" y2="40" stroke="black" stroke-width="4"/>
<line x1="272" y1="38" x2="272" y2="28" stroke="black" stroke-width="4"/>
<rect x="280" y="36" width="4" height="4" transform="rotate(-180 280 36)" fill="black"/>
<rect x="278" y="34" width="4" height="4" transform="rotate(-180 278 34)" fill="black"/>
<rect x="274" y="31" width="4" height="4" transform="rotate(-180 274 31)" fill="black"/>
<rect x="271" y="34" width="4" height="4" transform="rotate(-180 271 34)" fill="black"/>
<rect x="268" y="36" width="4" height="4" transform="rotate(-180 268 36)" fill="black"/>
<rect x="255" y="25" width="2" height="11" fill="black"/>
<rect x="255" y="24" width="2" height="2" fill="black"/>
<rect x="254" y="25" width="2" height="2" fill="black"/>
<rect x="253" y="26" width="2" height="2" fill="black"/>
<rect x="252" y="27" width="2" height="2" fill="black"/>
<rect x="251" y="35" width="9" height="2" fill="black"/>
</g>
<path fill-rule="evenodd" clip-rule="evenodd" d="M62 40V8H68V40H62ZM76 40V8H82V40H76Z" fill="black"/>
<line x1="302" y1="8" x2="328" y2="8" stroke="black" stroke-width="4"/>
<line x1="304" y1="10" x2="304" y2="20" stroke="black" stroke-width="4"/>
<rect x="296" y="12" width="4" height="4" fill="black"/>
<rect x="298" y="14" width="4" height="4" fill="black"/>
<rect x="302" y="17" width="4" height="4" fill="black"/>
<rect x="305" y="14" width="4" height="4" fill="black"/>
<rect x="308" y="12" width="4" height="4" fill="black"/>
<line x1="322" y1="40" x2="296" y2="40" stroke="black" stroke-width="4"/>
<line x1="320" y1="38" x2="320" y2="28" stroke="black" stroke-width="4"/>
<rect x="328" y="36" width="4" height="4" transform="rotate(-180 328 36)" fill="black"/>
<rect x="326" y="34" width="4" height="4" transform="rotate(-180 326 34)" fill="black"/>
<rect x="322" y="31" width="4" height="4" transform="rotate(-180 322 31)" fill="black"/>
<rect x="319" y="34" width="4" height="4" transform="rotate(-180 319 34)" fill="black"/>
<rect x="316" y="36" width="4" height="4" transform="rotate(-180 316 36)" fill="black"/>
<rect x="296" y="28" width="2" height="9" fill="black"/>
<rect x="298" y="27" width="2" height="2" fill="black"/>
<rect x="302" y="29" width="2" height="3" fill="black"/>
<rect x="299" y="32" width="2" height="2" fill="black"/>
<rect x="301" y="31" width="2" height="2" fill="black"/>
<rect x="300" y="27" width="2" height="2" fill="black"/>
<rect x="301" y="28" width="2" height="2" fill="black"/>
<rect x="300" y="33" width="2" height="2" fill="black"/>
<rect x="301" y="34" width="2" height="2" fill="black"/>
<rect x="302" y="35" width="2" height="2" fill="black"/>
<rect x="344" y="10" width="32" height="4" fill="black"/>
<rect x="344" y="22" width="32" height="4" fill="black"/>
<rect x="344" y="34" width="32" height="4" fill="black"/>
</g>
<defs>
<clipPath id="clip0_208_17318">
<rect width="384" height="48" fill="white"/>
</clipPath>
<clipPath id="clip1_208_17318">
<rect width="48" height="48" fill="white" transform="translate(240)"/>
</clipPath>
</defs>
</svg>
